<svg xmlns="http://www.w3.org/2000/svg" viewBox="0 -0.5 16 16" shape-rendering="crispEdges">
<metadata>Made with Pixels to Svg https://codepen.io/shshaw/pen/XbxvNj</metadata>
<path stroke="#2e2117" d="M0 0h1M5 0h1M13 0h1M15 0h1M9 1h1M0 2h1M4 2h1M8 2h1M14 2h1M2 3h1M7 3h1M13 3h1M3 4h1M15 5h1M0 6h1M7 6h2M10 6h2M0 7h1M2 7h2M12 9h2M3 10h2M6 10h1M9 10h2M5 11h1M6 12h1M14 12h2M10 13h1M13 13h1M3 14h1M2 15h1" />
<path stroke="#261b13" d="M1 0h2M6 0h2M1 1h1M5 1h1M10 1h1M13 1h1M0 3h1M4 3h1M8 3h2M11 3h1M14 3h1M0 4h1M2 4h1M5 4h1M8 4h1M13 4h1M2 5h2M5 5h1M13 6h1M15 6h1M4 7h2M8 7h1M10 7h2M14 7h2M0 8h1M3 8h1M5 8h1M9 8h2M0 9h2M15 9h1M0 10h2M7 10h1M12 10h2M0 11h1M3 11h2M7 11h1M9 11h2M13 11h1M2 12h1M4 12h2M1 13h1M6 13h2M14 13h2M0 14h1M14 14h2M0 15h1M3 15h2M7 15h3M12 15h2" />
<path stroke="#1e150f" d="M3 0h2M8 0h2M11 0h2M14 0h1M0 1h1M3 1h2M8 1h1M11 1h2M1 2h2M5 2h3M9 2h3M15 2h1M3 3h1M6 3h1M10 3h1M12 3h1M15 3h1M1 4h1M6 4h2M10 4h1M12 4h1M15 4h1M0 5h1M4 5h1M9 5h2M12 5h3M2 6h2M5 6h2M9 6h1M12 6h1M14 6h1M1 7h1M6 7h2M12 7h2M1 8h2M4 8h1M6 8h1M8 8h1M11 8h3M15 8h1M3 9h2M7 9h5M14 9h1M2 10h1M5 10h1M11 10h1M15 10h1M1 11h2M6 11h1M11 11h1M14 11h1M0 12h1M3 12h1M7 12h7M0 13h1M2 13h2M5 13h1M8 13h1M12 13h1M1 14h1M4 14h1M6 14h1M8 14h3M12 14h2M1 15h1M5 15h1M10 15h2M14 15h1" />
<path stroke="#160f0a" d="M10 0h1M2 1h1M7 1h1M14 1h2M3 2h1M12 2h2M5 3h1M4 4h1M9 4h1M14 4h1M1 5h1M6 5h3M11 5h1M1 6h1M9 7h1M7 8h1M14 8h1M2 9h1M5 9h2M8 10h1M12 11h1M15 11h1M1 12h1M9 13h1M11 13h1M2 14h1M5 14h1M7 14h1M11 14h1M15 15h1" />
<path stroke="#222222" d="M6 1h1M4 6h1M14 10h1M6 15h1" />
<path stroke="#1b1b1b" d="M1 3h1M11 4h1M8 11h1" />
<path stroke="#1d1611" d="M4 13h1" />
</svg>