<svg xmlns="http://www.w3.org/2000/svg" viewBox="0 -0.5 274 44" shape-rendering="crispEdges">
<metadata>Made with Pixels to Svg https://codepen.io/shshaw/pen/XbxvNj</metadata>
<path stroke="#040303" d="M10 0h12M35 0h13M50 0h13M64 0h13M83 0h12M98 0h27M126 0h29M156 0h27M186 0h26M215 0h27M244 0h28M10 1h1M22 1h1M35 1h1M47 1h2M50 1h1M62 1h1M64 1h1M76 1h1M83 1h1M94 1h1M97 1h1M124 1h1M126 1h1M154 1h1M156 1h1M182 1h1M185 1h1M212 1h1M214 1h2M241 1h1M243 1h2M271 1h1M9 2h1M21 2h3M35 2h1M47 2h3M62 2h1M64 2h1M76 2h2M82 2h1M94 2h2M97 2h1M124 2h1M126 2h1M154 2h1M156 2h1M183 2h1M185 2h1M212 2h1M214 2h2M242 2h3M272 2h1M9 3h1M21 3h4M35 3h1M47 3h3M62 3h3M76 3h2M82 3h1M94 3h2M97 3h1M124 3h1M126 3h1M153 3h1M156 3h1M183 3h1M185 3h1M213 3h3M242 3h3M272 3h1M9 4h1M21 4h5M34 4h1M47 4h3M61 4h4M76 4h3M82 4h1M94 4h2M97 4h1M124 4h1M126 4h1M153 4h1M156 4h1M183 4h1M185 4h1M213 4h3M243 4h2M272 4h1M8 5h1M21 5h5M34 5h1M46 5h4M61 5h3M76 5h3M82 5h1M94 5h4M124 5h1M126 5h1M153 5h1M156 5h1M183 5h3M213 5h3M243 5h3M272 5h1M8 6h1M21 6h6M30 6h5M46 6h3M61 6h3M77 6h3M82 6h1M94 6h4M124 6h1M126 6h1M153 6h1M156 6h1M183 6h4M213 6h3M234 6h1M243 6h3M264 6h1M272 6h1M8 7h1M23 7h5M30 7h1M46 7h3M61 7h3M79 7h1M82 7h1M94 7h3M109 7h16M126 7h1M140 7h14M156 7h1M168 7h3M183 7h4M194 7h4M203 7h4M213 7h3M228 7h25M264 7h9M7 8h1M23 8h6M30 8h1M46 8h3M61 8h3M79 8h2M82 8h1M94 8h3M109 8h16M126 8h1M139 8h15M155 8h2M168 8h4M184 8h3M194 8h4M202 8h5M214 8h3M228 8h26M266 8h6M7 9h1M23 9h7M45 9h4M60 9h4M79 9h3M94 9h3M109 9h16M126 9h1M139 9h15M155 9h2M169 9h3M184 9h3M194 9h4M202 9h5M214 9h3M229 9h25M266 9h5M7 10h1M23 10h7M45 10h3M60 10h3M79 10h3M94 10h3M109 10h16M126 10h1M139 10h15M155 10h2M169 10h3M184 10h3M198 10h4M214 10h3M229 10h26M266 10h4M7 11h1M22 11h8M45 11h3M60 11h3M79 11h3M94 11h3M108 11h17M126 11h1M139 11h15M155 11h2M169 11h3M184 11h3M198 11h4M214 11h3M229 11h26M267 11h3M6 12h1M22 12h7M45 12h3M60 12h3M79 12h2M94 12h3M108 12h17M126 12h1M139 12h15M155 12h2M169 12h3M184 12h3M196 12h9M214 12h3M230 12h25M267 12h2M6 13h1M44 13h4M60 13h3M93 13h4M115 13h1M123 13h2M126 13h1M139 13h15M155 13h2M181 13h6M196 13h9M214 13h4M245 13h10M267 13h1M6 14h1M45 14h3M59 14h4M93 14h4M123 14h2M126 14h1M139 14h14M155 14h2M180 14h7M196 14h10M215 14h3M245 14h11M267 14h1M5 15h1M45 15h2M59 15h3M93 15h3M123 15h2M126 15h1M139 15h14M155 15h2M180 15h8M197 15h2M203 15h3M215 15h3M245 15h11M268 15h1M5 16h1M44 16h3M59 16h3M93 16h3M123 16h2M126 16h1M139 16h14M155 16h2M184 16h4M197 16h2M204 16h2M215 16h3M245 16h11M268 16h1M5 17h1M44 17h3M59 17h3M74 17h2M93 17h3M123 17h2M126 17h1M139 17h14M155 17h2M184 17h4M197 17h2M204 17h2M215 17h3M246 17h11M268 17h2M4 18h1M43 18h4M59 18h3M74 18h3M93 18h3M123 18h2M126 18h1M139 18h14M155 18h2M185 18h3M215 18h3M246 18h11M269 18h1M4 19h1M43 19h3M58 19h4M74 19h3M93 19h3M123 19h2M126 19h1M138 19h1M155 19h2M185 19h3M216 19h3M236 19h1M246 19h11M269 19h1M4 20h1M16 20h3M28 20h3M43 20h3M58 20h4M74 20h3M93 20h3M108 20h17M126 20h1M138 20h1M156 20h1M169 20h3M185 20h3M216 20h3M231 20h26M269 20h1M3 21h1M16 21h3M28 21h3M43 21h3M58 21h3M73 21h4M92 21h4M108 21h17M126 21h1M138 21h1M156 21h2M169 21h4M185 21h3M216 21h3M231 21h14M246 21h12M270 21h1M3 22h1M15 22h4M27 22h3M42 22h4M58 22h3M73 22h4M92 22h4M108 22h17M126 22h1M138 22h1M156 22h2M169 22h4M185 22h3M216 22h3M231 22h14M247 22h10M270 22h1M3 23h1M15 23h3M27 23h3M42 23h4M58 23h3M73 23h5M92 23h4M108 23h17M126 23h1M138 23h1M156 23h2M169 23h4M185 23h3M201 23h3M216 23h3M232 23h12M247 23h10M270 23h1M2 24h1M15 24h3M27 24h3M42 24h3M57 24h4M73 24h7M92 24h4M107 24h18M126 24h1M138 24h1M156 24h2M170 24h3M185 24h4M201 24h3M216 24h4M232 24h11M247 24h9M258 24h2M270 24h2M2 25h1M15 25h3M26 25h4M42 25h3M57 25h4M73 25h7M92 25h3M107 25h18M126 25h1M139 25h16M156 25h2M170 25h3M185 25h4M201 25h3M217 25h3M232 25h10M247 25h9M257 25h2M271 25h1M2 26h1M14 26h3M26 26h3M41 26h4M57 26h3M74 26h6M92 26h3M123 26h2M126 26h1M154 26h1M156 26h2M170 26h3M185 26h4M201 26h3M217 26h3M232 26h10M248 26h8M257 26h2M271 26h1M1 27h1M14 27h4M26 27h3M41 27h4M57 27h3M72 27h1M74 27h6M92 27h3M123 27h2M126 27h1M154 27h1M156 27h2M170 27h3M185 27h4M201 27h4M217 27h3M232 27h9M248 27h7M256 27h3M271 27h2M1 28h1M14 28h5M27 28h2M41 28h3M57 28h3M72 28h7M92 28h3M123 28h2M126 28h1M154 28h1M156 28h2M170 28h3M186 28h3M201 28h4M217 28h3M233 28h7M248 28h7M256 28h4M272 28h1M0 29h2M13 29h7M28 29h1M41 29h3M56 29h4M72 29h7M92 29h3M123 29h2M126 29h1M154 29h1M156 29h2M170 29h3M186 29h3M201 29h4M217 29h3M233 29h7M248 29h6M255 29h5M272 29h1M0 30h1M13 30h8M40 30h4M50 30h1M56 30h4M72 30h7M91 30h4M123 30h2M126 30h1M154 30h1M156 30h2M170 30h4M186 30h3M202 30h3M217 30h4M233 30h6M249 30h11M273 30h1M0 31h1M13 31h13M40 31h3M50 31h1M56 31h3M72 31h7M87 31h1M91 31h4M101 31h2M115 31h1M123 31h2M126 31h1M135 31h1M146 31h1M154 31h1M156 31h2M170 31h4M186 31h3M202 31h3M217 31h4M233 31h1M249 31h11M273 31h1M0 32h1M12 32h10M40 32h3M50 32h2M56 32h3M65 32h2M72 32h7M87 32h1M91 32h4M101 32h2M115 32h1M123 32h2M126 32h1M135 32h2M146 32h2M154 32h1M156 32h2M170 32h4M179 32h1M186 32h3M196 32h1M202 32h3M217 32h4M233 32h1M249 32h11M273 32h1M0 33h1M13 33h10M28 33h1M40 33h4M50 33h2M57 33h2M66 33h1M72 33h7M87 33h1M91 33h4M102 33h1M115 33h1M123 33h2M126 33h1M135 33h2M146 33h2M154 33h1M156 33h2M170 33h3M179 33h1M186 33h3M196 33h1M202 33h3M217 33h4M233 33h1M249 33h11M273 33h1M1 34h1M13 34h12M28 34h1M40 34h5M51 34h1M57 34h3M66 34h1M73 34h5M79 34h1M87 34h2M91 34h5M103 34h1M123 34h2M126 34h1M135 34h1M146 34h1M154 34h1M156 34h1M170 34h3M179 34h1M185 34h3M201 34h3M216 34h5M232 34h1M250 34h3M254 34h5M272 34h1M2 35h1M14 35h3M18 35h6M25 35h1M29 35h1M41 35h4M58 35h3M67 35h1M73 35h5M79 35h1M88 35h1M92 35h4M103 35h1M123 35h2M126 35h1M134 35h1M145 35h1M153 35h1M156 35h1M169 35h1M171 35h2M185 35h3M201 35h3M216 35h1M218 35h2M232 35h1M250 35h4M255 35h3M271 35h1M3 36h1M15 36h2M18 36h6M26 36h5M42 36h4M58 36h3M73 36h5M80 36h1M88 36h1M92 36h4M103 36h1M123 36h2M126 36h1M133 36h1M145 36h1M153 36h1M156 36h1M169 36h1M171 36h2M184 36h4M201 36h2M215 36h2M219 36h1M231 36h1M250 36h4M255 36h3M270 36h1M4 37h1M16 37h1M18 37h6M30 37h1M42 37h5M59 37h3M74 37h4M80 37h1M89 37h1M93 37h4M103 37h1M121 37h4M126 37h1M133 37h1M145 37h1M153 37h1M156 37h1M169 37h1M171 37h2M184 37h4M196 37h7M215 37h3M219 37h3M230 37h1M250 37h5M256 37h3M269 37h1M5 38h1M13 38h11M31 38h1M43 38h2M46 38h2M59 38h4M74 38h4M81 38h1M93 38h4M118 38h7M126 38h1M145 38h1M153 38h1M156 38h1M168 38h1M171 38h1M181 38h6M199 38h4M214 38h11M229 38h1M251 38h4M256 38h6M268 38h1M6 39h1M17 39h7M32 39h1M44 39h1M46 39h2M59 39h4M75 39h3M81 39h4M93 39h4M123 39h2M126 39h3M145 39h1M153 39h1M156 39h4M168 39h1M171 39h1M183 39h1M185 39h2M198 39h1M200 39h2M214 39h4M229 39h1M251 39h5M267 39h1M7 40h1M18 40h5M33 40h1M42 40h3M46 40h3M60 40h4M75 40h2M82 40h1M94 40h2M97 40h1M123 40h2M127 40h5M144 40h1M153 40h1M156 40h1M159 40h10M171 40h1M183 40h1M185 40h2M198 40h1M200 40h2M213 40h1M215 40h3M228 40h1M251 40h4M266 40h1M8 41h1M19 41h4M34 41h1M40 41h8M49 41h1M60 41h5M75 41h2M82 41h1M94 41h1M97 41h1M123 41h2M127 41h1M144 41h1M153 41h1M156 41h1M168 41h1M171 41h1M182 41h2M186 41h1M198 41h1M200 41h1M212 41h1M215 41h2M227 41h1M251 41h4M265 41h1M9 42h1M20 42h3M35 42h1M46 42h2M50 42h1M61 42h2M64 42h1M76 42h1M83 42h1M94 42h1M97 42h1M123 42h1M127 42h1M144 42h1M153 42h1M156 42h1M167 42h1M171 42h1M182 42h1M186 42h1M197 42h1M200 42h1M212 42h1M215 42h2M226 42h2M252 42h2M263 42h2M10 43h12M36 43h12M51 43h11M65 43h12M83 43h12M98 43h26M127 43h27M156 43h12M171 43h12M186 43h11M200 43h12M215 43h12M252 43h11" />
<path stroke="#867e7e" d="M11 1h1M98 1h1M127 1h1M162 1h1M231 1h1M263 1h1M36 2h1M65 2h1M83 2h1M127 2h1M153 2h1M163 2h1M263 2h1M10 3h1M46 3h1M50 3h1M163 3h1M182 3h1M245 3h1M20 4h1M163 4h1M186 4h1M212 4h1M253 4h1M9 5h1M35 5h1M163 5h1M242 5h1M253 5h1M263 5h1M37 6h1M64 6h1M73 6h2M152 6h1M163 6h1M216 6h1M246 6h1M252 6h1M271 6h1M15 7h7M31 7h1M45 7h1M49 7h1M60 7h1M163 7h1M9 8h1M56 8h2M87 8h1M90 8h4M8 9h1M22 9h1M97 9h3M103 9h2M108 9h1M183 9h1M213 9h1M37 10h1M161 10h2M37 11h1M44 11h1M48 11h1M63 11h1M78 11h1M130 11h3M137 11h1M217 11h1M37 12h1M59 12h1M29 13h6M163 13h1M187 13h1M236 13h1M39 14h1M163 14h5M244 14h1M168 15h1M176 15h3M214 15h1M43 16h1M47 16h1M62 16h1M96 16h1M6 17h2M58 17h1M77 17h2M115 17h1M128 17h2M138 17h1M218 17h1M5 18h1M115 18h1M127 18h1M197 18h2M204 18h2M245 18h1M9 19h1M73 19h1M184 19h1M9 20h1M42 20h1M46 20h1M215 20h1M4 21h1M9 21h1M8 22h1M57 22h1M61 22h4M107 22h1M173 22h11M188 22h1M219 22h1M8 23h1M67 23h1M82 23h1M266 23h4M3 24h1M41 24h1M80 24h1M88 24h1M96 24h6M45 25h1M101 25h1M162 25h3M205 25h4M95 26h1M101 26h1M121 26h1M153 26h1M161 26h1M2 27h1M56 27h1M60 27h1M116 27h5M161 27h1M7 28h4M40 28h1M115 28h1M220 28h1M44 29h1M88 29h1M115 29h1M185 29h1M1 30h1M71 30h1M39 31h1M132 31h1M160 31h1M179 31h1M122 32h1M127 32h1M131 32h1M138 32h1M153 32h1M160 32h1M169 32h1M174 32h1M185 32h1M201 32h1M216 32h1M221 32h1M232 32h1M261 32h1M272 32h1" />
<path stroke="#aba19e" d="M12 1h1M15 1h6M37 1h6M45 1h2M52 1h2M55 1h3M66 1h5M73 1h1M75 1h1M84 1h8M93 1h1M101 1h3M105 1h5M112 1h1M114 1h7M123 1h1M129 1h5M135 1h5M142 1h4M148 1h2M151 1h3M158 1h1M161 1h1M163 1h4M169 1h1M171 1h1M175 1h5M187 1h4M192 1h1M194 1h1M197 1h1M199 1h9M210 1h1M216 1h5M223 1h4M228 1h2M232 1h1M234 1h1M245 1h5M252 1h2M255 1h1M258 1h5M264 1h7M11 2h5M18 2h1M38 2h2M43 2h2M46 2h1M51 2h1M53 2h2M56 2h1M59 2h2M66 2h1M69 2h3M74 2h2M85 2h3M92 2h1M98 2h1M101 2h1M103 2h1M105 2h2M110 2h4M116 2h1M118 2h2M121 2h1M128 2h6M135 2h3M141 2h4M147 2h1M149 2h1M157 2h3M164 2h8M174 2h6M181 2h1M186 2h3M191 2h1M193 2h1M196 2h5M205 2h1M207 2h1M209 2h3M216 2h5M222 2h5M228 2h1M230 2h1M232 2h2M239 2h2M247 2h1M250 2h2M254 2h1M256 2h7M265 2h2M268 2h2M11 3h10M37 3h1M40 3h3M44 3h2M52 3h2M56 3h5M65 3h5M73 3h3M83 3h3M87 3h3M92 3h2M98 3h3M103 3h2M106 3h14M127 3h3M132 3h1M134 3h2M138 3h3M142 3h1M144 3h3M148 3h3M152 3h1M157 3h6M164 3h2M169 3h2M174 3h2M180 3h2M186 3h1M189 3h1M193 3h6M200 3h7M216 3h1M219 3h4M227 3h3M231 3h1M234 3h7M246 3h3M253 3h1M257 3h2M262 3h1M267 3h2M270 3h2M10 4h1M15 4h1M17 4h1M36 4h10M50 4h1M52 4h4M57 4h2M65 4h5M72 4h4M84 4h2M87 4h2M90 4h4M99 4h2M102 4h4M107 4h1M113 4h1M115 4h6M122 4h2M134 4h3M138 4h4M145 4h2M148 4h4M159 4h4M165 4h1M168 4h5M179 4h4M190 4h5M200 4h1M202 4h1M205 4h3M209 4h3M219 4h7M228 4h2M232 4h1M235 4h1M247 4h2M251 4h2M254 4h2M261 4h2M264 4h1M266 4h2M269 4h3M10 5h3M15 5h4M37 5h5M52 5h9M65 5h2M70 5h3M85 5h3M89 5h1M99 5h2M102 5h3M107 5h6M114 5h3M120 5h3M127 5h1M134 5h6M142 5h2M145 5h1M148 5h5M157 5h1M159 5h4M164 5h1M166 5h4M173 5h1M180 5h3M189 5h4M196 5h4M201 5h3M205 5h5M221 5h3M225 5h1M227 5h2M231 5h3M237 5h5M249 5h3M255 5h1M265 5h2M11 6h1M19 6h1M42 6h1M44 6h1M55 6h5M66 6h1M68 6h4M87 6h1M90 6h2M98 6h1M106 6h4M127 6h5M137 6h3M157 6h1M159 6h1M164 6h5M170 6h1M172 6h6M192 6h1M196 6h5M205 6h3M211 6h2M217 6h4M224 6h3M240 6h1M242 6h1M254 6h1M256 6h5M262 6h1M33 7h1M40 7h4M50 7h1M53 7h1M56 7h4M64 7h1M67 7h5M73 7h4M88 7h1M93 7h1M98 7h4M103 7h1M107 7h2M127 7h1M131 7h2M134 7h2M138 7h1M157 7h1M164 7h4M172 7h2M177 7h2M181 7h1M187 7h2M207 7h2M210 7h3M218 7h2M221 7h1M225 7h3M254 7h3M260 7h1M263 7h1M11 8h6M18 8h4M38 8h3M49 8h1M53 8h1M55 8h1M64 8h1M67 8h3M74 8h2M85 8h2M99 8h1M102 8h2M135 8h4M158 8h3M164 8h2M181 8h2M190 8h2M198 8h4M212 8h1M222 8h3M226 8h1M264 8h1M12 9h1M16 9h1M18 9h1M20 9h2M31 9h1M34 9h3M39 9h1M41 9h2M53 9h1M55 9h1M65 9h5M73 9h1M75 9h3M82 9h2M86 9h1M89 9h2M93 9h1M105 9h1M127 9h1M132 9h3M136 9h1M164 9h2M167 9h1M172 9h2M175 9h1M177 9h1M179 9h4M192 9h2M210 9h1M212 9h1M220 9h6M255 9h1M258 9h1M260 9h5M8 10h3M13 10h3M21 10h1M36 10h1M40 10h2M43 10h2M51 10h4M56 10h3M66 10h2M70 10h2M83 10h1M86 10h4M91 10h3M102 10h3M106 10h2M131 10h1M135 10h4M166 10h2M172 10h1M179 10h3M189 10h3M193 10h4M203 10h2M207 10h2M220 10h1M222 10h1M224 10h1M226 10h3M261 10h1M263 10h1M8 11h5M15 11h1M20 11h2M30 11h3M35 11h1M41 11h1M52 11h8M66 11h1M68 11h4M76 11h2M84 11h2M88 11h2M91 11h1M102 11h6M127 11h3M159 11h1M161 11h2M165 11h4M172 11h5M178 11h3M190 11h8M204 11h1M206 11h4M213 11h1M218 11h1M225 11h3M255 11h4M260 11h1M262 11h3M7 12h2M10 12h1M12 12h6M38 12h4M43 12h1M49 12h2M54 12h2M58 12h1M63 12h3M69 12h1M71 12h2M74 12h2M82 12h1M84 12h4M89 12h1M91 12h1M97 12h1M99 12h2M102 12h1M104 12h3M130 12h3M134 12h3M157 12h3M165 12h1M167 12h2M176 12h3M180 12h3M187 12h1M189 12h5M206 12h1M208 12h2M211 12h2M218 12h2M221 12h4M227 12h2M260 12h2M263 12h4M9 13h1M12 13h1M15 13h1M17 13h2M20 13h4M26 13h2M40 13h1M42 13h1M49 13h4M55 13h1M57 13h1M64 13h2M68 13h1M70 13h2M74 13h2M77 13h2M82 13h4M87 13h4M99 13h3M105 13h1M107 13h1M110 13h1M112 13h1M114 13h1M118 13h3M127 13h2M130 13h1M132 13h4M158 13h2M161 13h2M169 13h3M173 13h4M178 13h2M188 13h3M194 13h1M210 13h2M213 13h1M218 13h7M228 13h1M230 13h2M235 13h1M239 13h2M243 13h1M256 13h4M261 13h6M8 14h3M12 14h4M19 14h2M26 14h2M30 14h4M35 14h4M50 14h1M53 14h6M63 14h1M67 14h2M74 14h2M77 14h1M79 14h7M97 14h2M100 14h1M102 14h1M104 14h1M106 14h3M111 14h3M117 14h2M128 14h4M133 14h3M157 14h3M162 14h1M170 14h2M173 14h6M189 14h1M191 14h1M193 14h3M211 14h3M218 14h1M220 14h1M222 14h2M225 14h1M229 14h1M233 14h1M235 14h1M237 14h1M240 14h3M257 14h9M9 15h2M15 15h2M20 15h2M26 15h13M40 15h3M48 15h1M50 15h4M57 15h2M63 15h2M68 15h2M75 15h5M81 15h6M89 15h4M97 15h2M100 15h5M107 15h2M113 15h2M118 15h1M127 15h6M134 15h4M159 15h2M164 15h2M171 15h5M188 15h4M194 15h2M212 15h2M218 15h16M237 15h1M241 15h4M256 15h11M9 16h1M12 16h1M15 16h8M25 16h3M31 16h5M37 16h6M50 16h4M55 16h2M64 16h7M73 16h1M75 16h2M79 16h6M86 16h5M98 16h3M102 16h2M105 16h2M108 16h3M114 16h1M116 16h5M129 16h10M161 16h6M169 16h2M172 16h1M175 16h5M182 16h2M188 16h3M192 16h1M194 16h3M199 16h1M203 16h1M206 16h2M210 16h1M212 16h2M218 16h7M229 16h1M231 16h2M234 16h2M242 16h1M244 16h1M258 16h6M265 16h3M12 17h3M18 17h1M20 17h2M23 17h2M26 17h2M29 17h7M38 17h2M41 17h2M47 17h1M50 17h2M54 17h3M62 17h1M70 17h2M73 17h1M79 17h5M85 17h3M89 17h2M96 17h3M100 17h2M103 17h3M109 17h5M116 17h1M119 17h2M130 17h4M135 17h3M157 17h2M164 17h1M167 17h4M173 17h1M175 17h5M182 17h2M188 17h1M190 17h1M192 17h1M199 17h2M203 17h1M208 17h3M214 17h1M219 17h2M223 17h5M230 17h1M232 17h2M239 17h3M258 17h5M265 17h2M8 18h1M10 18h4M15 18h7M25 18h1M29 18h3M40 18h3M48 18h2M55 18h3M62 18h8M78 18h2M83 18h1M88 18h2M92 18h1M96 18h1M98 18h3M102 18h2M106 18h6M113 18h2M116 18h4M128 18h2M133 18h1M157 18h1M159 18h7M169 18h2M173 18h3M178 18h2M183 18h1M191 18h1M193 18h4M199 18h5M206 18h1M210 18h2M214 18h1M224 18h2M227 18h3M231 18h4M237 18h4M242 18h3M257 18h2M261 18h1M263 18h2M267 18h1M5 19h4M21 19h2M24 19h4M36 19h5M42 19h1M49 19h1M53 19h5M64 19h2M69 19h2M72 19h1M82 19h5M88 19h1M90 19h2M99 19h2M102 19h7M133 19h3M137 19h1M162 19h4M168 19h1M172 19h1M178 19h4M183 19h1M190 19h6M200 19h1M202 19h6M209 19h5M220 19h6M228 19h2M263 19h6M5 20h2M11 20h2M14 20h2M21 20h5M36 20h4M48 20h1M50 20h1M52 20h3M57 20h1M62 20h2M65 20h2M70 20h3M85 20h4M96 20h1M102 20h3M127 20h1M134 20h3M160 20h3M164 20h1M166 20h3M173 20h1M180 20h4M189 20h3M194 20h5M201 20h3M205 20h5M213 20h2M221 20h3M225 20h1M228 20h1M263 20h3M267 20h2M8 21h1M11 21h2M14 21h1M19 21h4M26 21h1M31 21h4M39 21h1M46 21h3M56 21h2M62 21h1M68 21h4M77 21h7M87 21h2M90 21h1M96 21h2M105 21h3M127 21h5M137 21h1M158 21h2M164 21h5M173 21h2M178 21h1M183 21h2M192 21h5M199 21h1M203 21h5M211 21h5M220 21h1M225 21h2M258 21h3M262 21h1M266 21h1M268 21h1M9 22h4M19 22h5M25 22h2M33 22h2M36 22h2M40 22h1M46 22h5M52 22h2M68 22h1M70 22h3M77 22h1M81 22h1M85 22h1M88 22h1M91 22h1M96 22h5M127 22h1M131 22h2M134 22h1M160 22h1M162 22h1M164 22h4M184 22h1M189 22h1M194 22h4M199 22h1M205 22h1M207 22h8M221 22h2M225 22h5M264 22h1M267 22h1M4 23h4M11 23h1M19 23h3M37 23h4M47 23h1M49 23h1M52 23h1M55 23h1M62 23h2M66 23h1M87 23h2M96 23h1M102 23h4M135 23h3M158 23h3M163 23h3M181 23h4M189 23h4M196 23h2M199 23h1M204 23h3M211 23h2M222 23h3M228 23h1M230 23h1M6 24h2M12 24h1M18 24h1M20 24h2M23 24h1M25 24h1M31 24h1M33 24h4M46 24h1M53 24h1M55 24h1M66 24h4M89 24h2M105 24h1M131 24h1M133 24h1M162 24h1M173 24h1M177 24h1M179 24h3M183 24h1M190 24h1M192 24h1M197 24h1M204 24h2M210 24h1M213 24h3M220 24h2M223 24h1M225 24h1M260 24h1M262 24h2M265 24h1M268 24h2M4 25h4M18 25h2M22 25h2M33 25h8M48 25h2M52 25h5M61 25h3M66 25h2M69 25h3M83 25h1M85 25h3M96 25h1M102 25h5M131 25h3M136 25h2M158 25h2M179 25h1M184 25h1M189 25h7M198 25h3M222 25h2M227 25h2M230 25h2M261 25h1M263 25h2M267 25h1M4 26h3M8 26h4M24 26h1M30 26h2M33 26h2M37 26h2M40 26h1M46 26h2M52 26h5M63 26h1M65 26h2M69 26h3M80 26h3M84 26h2M87 26h1M90 26h2M96 26h1M98 26h1M103 26h8M113 26h1M115 26h2M118 26h3M122 26h1M127 26h4M135 26h3M142 26h2M149 26h4M159 26h1M162 26h7M173 26h3M179 26h4M189 26h9M200 26h1M205 26h5M221 26h1M224 26h1M226 26h1M231 26h1M263 26h1M265 26h2M268 26h1M5 27h2M8 27h1M10 27h3M32 27h3M36 27h5M48 27h3M52 27h1M54 27h2M61 27h3M71 27h1M80 27h3M84 27h4M89 27h1M91 27h1M95 27h1M97 27h1M99 27h2M102 27h1M104 27h3M108 27h1M110 27h6M121 27h2M130 27h3M134 27h8M145 27h2M149 27h3M158 27h2M167 27h2M177 27h2M180 27h3M184 27h1M190 27h4M195 27h2M198 27h3M206 27h1M208 27h2M211 27h2M221 27h4M227 27h3M260 27h2M263 27h4M268 27h1M270 27h1M2 28h3M29 28h2M32 28h6M39 28h1M45 28h1M49 28h1M51 28h1M54 28h2M60 28h7M68 28h2M71 28h1M82 28h4M89 28h2M95 28h1M99 28h2M102 28h2M106 28h2M111 28h4M118 28h1M121 28h1M127 28h3M132 28h4M137 28h3M141 28h1M145 28h5M151 28h1M153 28h1M158 28h3M164 28h1M166 28h2M174 28h1M176 28h7M192 28h3M198 28h1M200 28h1M205 28h1M208 28h1M211 28h5M221 28h4M229 28h3M261 28h5M268 28h2M2 29h1M4 29h2M7 29h2M10 29h1M12 29h1M31 29h5M38 29h2M45 29h1M48 29h2M52 29h2M55 29h1M64 29h7M80 29h4M86 29h1M89 29h1M95 29h1M98 29h3M102 29h2M105 29h1M107 29h2M110 29h1M114 29h1M116 29h5M129 29h11M141 29h2M144 29h1M148 29h2M151 29h1M153 29h1M159 29h1M162 29h5M169 29h1M175 29h8M189 29h2M192 29h1M194 29h4M199 29h1M205 29h3M210 29h2M213 29h1M216 29h1M222 29h4M228 29h1M230 29h3M260 29h3M265 29h5M271 29h1M2 30h2M5 30h1M7 30h2M12 30h1M29 30h7M38 30h2M44 30h4M49 30h1M51 30h1M53 30h2M60 30h3M66 30h1M68 30h1M79 30h5M86 30h1M89 30h2M96 30h2M99 30h2M103 30h1M109 30h5M116 30h1M118 30h5M127 30h1M129 30h5M136 30h2M139 30h7M147 30h1M149 30h1M151 30h2M158 30h1M162 30h1M165 30h1M167 30h2M175 30h5M181 30h5M191 30h3M197 30h3M205 30h2M209 30h1M214 30h1M216 30h1M222 30h7M230 30h1M260 30h3M264 30h3M271 30h1M1 31h1M5 31h1M7 31h5M29 31h3M44 31h3M48 31h2M54 31h2M60 31h2M63 31h7M79 31h1M84 31h1M88 31h2M95 31h2M98 31h3M104 31h1M106 31h6M113 31h2M116 31h4M127 31h3M138 31h5M144 31h2M151 31h3M161 31h5M174 31h2M181 31h1M183 31h1M185 31h1M190 31h9M200 31h1M205 31h2M213 31h4M221 31h1M227 31h2M231 31h1M261 31h1M266 31h3M271 31h2M1 32h1M105 32h1M116 32h1" />
<path stroke="#aea4a1" d="M13 1h2M43 1h2M51 1h1M54 1h1M58 1h3M71 1h2M74 1h1M92 1h1M99 1h2M104 1h1M110 1h2M113 1h1M121 1h2M128 1h1M134 1h1M140 1h2M146 1h2M150 1h1M157 1h1M159 1h2M167 1h2M170 1h1M172 1h1M174 1h1M180 1h2M186 1h1M191 1h1M193 1h1M195 1h2M198 1h1M208 1h2M211 1h1M221 1h2M227 1h1M230 1h1M233 1h1M235 1h6M250 1h2M254 1h1M257 1h1M16 2h1M19 2h2M37 2h1M40 2h3M45 2h1M52 2h1M55 2h1M57 2h1M67 2h2M72 2h2M84 2h1M88 2h4M93 2h1M99 2h2M102 2h1M104 2h1M107 2h1M109 2h1M114 2h1M117 2h1M120 2h1M122 2h2M134 2h1M138 2h3M145 2h2M148 2h1M150 2h3M160 2h1M162 2h1M172 2h2M180 2h1M189 2h2M192 2h1M194 2h1M201 2h1M203 2h2M206 2h1M208 2h1M221 2h1M227 2h1M229 2h1M234 2h3M238 2h1M245 2h2M248 2h2M252 2h2M255 2h1M264 2h1M267 2h1M270 2h1M36 3h1M38 3h2M43 3h1M51 3h1M54 3h2M70 3h1M72 3h1M86 3h1M90 3h2M101 3h2M105 3h1M120 3h1M122 3h2M131 3h1M133 3h1M136 3h2M141 3h1M143 3h1M147 3h1M151 3h1M166 3h1M168 3h1M171 3h3M177 3h3M187 3h2M190 3h3M199 3h1M207 3h1M209 3h3M218 3h1M223 3h4M230 3h1M233 3h1M241 3h1M249 3h1M251 3h2M254 3h3M260 3h2M264 3h3M269 3h1M12 4h3M16 4h1M18 4h2M51 4h1M56 4h1M60 4h1M70 4h2M83 4h1M86 4h1M89 4h1M98 4h1M101 4h1M106 4h1M108 4h1M110 4h3M114 4h1M121 4h1M127 4h1M129 4h1M131 4h3M137 4h1M142 4h3M147 4h1M152 4h1M157 4h2M164 4h1M166 4h2M173 4h1M175 4h1M177 4h2M187 4h3M195 4h1M197 4h3M201 4h1M203 4h2M208 4h1M216 4h1M218 4h1M226 4h2M230 4h2M236 4h2M239 4h3M246 4h1M249 4h2M256 4h1M258 4h1M260 4h1M265 4h1M268 4h1M13 5h2M19 5h1M36 5h1M42 5h4M50 5h2M67 5h3M73 5h3M84 5h1M88 5h1M90 5h4M98 5h1M101 5h1M105 5h2M113 5h1M117 5h3M123 5h1M128 5h2M131 5h2M140 5h2M144 5h1M146 5h2M158 5h1M165 5h1M170 5h3M174 5h2M177 5h2M187 5h2M193 5h3M200 5h1M204 5h1M210 5h3M216 5h1M218 5h2M224 5h1M226 5h1M229 5h2M235 5h2M246 5h3M252 5h1M254 5h1M256 5h3M260 5h2M267 5h5M10 6h1M12 6h1M38 6h4M43 6h1M45 6h1M52 6h2M60 6h1M65 6h1M67 6h1M72 6h1M86 6h1M88 6h2M92 6h2M99 6h1M102 6h2M105 6h1M122 6h1M132 6h3M136 6h1M158 6h1M160 6h3M169 6h1M171 6h1M178 6h3M182 6h1M189 6h2M201 6h1M208 6h3M221 6h1M223 6h1M241 6h1M255 6h1M261 6h1M263 6h1M265 6h1M32 7h1M34 7h3M38 7h1M44 7h1M51 7h2M54 7h1M65 7h2M72 7h1M77 7h2M83 7h1M89 7h1M102 7h1M104 7h1M106 7h1M128 7h1M130 7h1M133 7h1M136 7h1M158 7h5M174 7h1M176 7h1M179 7h2M182 7h1M189 7h3M198 7h4M209 7h1M217 7h1M220 7h1M222 7h2M257 7h1M259 7h1M261 7h2M10 8h1M17 8h1M22 8h1M31 8h2M35 8h2M41 8h2M50 8h3M54 8h1M65 8h2M70 8h2M78 8h1M83 8h2M98 8h1M100 8h2M104 8h3M108 8h1M128 8h3M133 8h2M157 8h1M161 8h2M166 8h2M174 8h3M179 8h2M187 8h3M192 8h1M207 8h2M211 8h1M217 8h1M220 8h2M225 8h1M227 8h1M254 8h1M257 8h3M262 8h2M9 9h2M13 9h1M15 9h1M17 9h1M19 9h1M32 9h2M38 9h1M40 9h1M43 9h2M49 9h1M52 9h1M54 9h1M56 9h3M64 9h1M70 9h3M74 9h1M78 9h1M84 9h2M87 9h2M91 9h2M106 9h2M128 9h4M135 9h1M137 9h2M157 9h1M162 9h1M166 9h1M174 9h1M176 9h1M178 9h1M189 9h3M198 9h1M200 9h2M207 9h3M211 9h1M217 9h3M226 9h1M256 9h2M259 9h1M265 9h1M11 10h2M16 10h5M31 10h1M33 10h3M38 10h2M42 10h1M49 10h2M55 10h1M59 10h1M64 10h2M68 10h2M72 10h1M75 10h3M82 10h1M84 10h2M90 10h1M97 10h5M105 10h1M127 10h1M129 10h1M164 10h2M168 10h1M173 10h1M175 10h1M177 10h2M182 10h2M187 10h2M192 10h1M197 10h1M205 10h2M209 10h1M212 10h2M218 10h2M221 10h1M223 10h1M225 10h1M255 10h2M258 10h1M260 10h1M262 10h1M264 10h2M14 11h1M16 11h4M33 11h2M36 11h1M38 11h3M42 11h2M49 11h3M64 11h2M67 11h1M72 11h2M75 11h1M82 11h2M86 11h2M90 11h1M92 11h1M97 11h5M138 11h1M158 11h1M160 11h1M164 11h1M177 11h1M181 11h3M187 11h3M203 11h1M205 11h1M210 11h1M212 11h1M219 11h6M228 11h1M259 11h1M261 11h1M265 11h1M9 12h1M11 12h1M19 12h3M30 12h3M42 12h1M48 12h1M51 12h3M56 12h2M67 12h2M70 12h1M73 12h1M76 12h2M88 12h1M90 12h1M92 12h1M98 12h1M101 12h1M103 12h1M107 12h1M127 12h3M160 12h2M164 12h1M166 12h1M172 12h4M183 12h1M188 12h1M194 12h2M205 12h1M207 12h1M210 12h1M213 12h1M225 12h2M255 12h5M7 13h2M13 13h2M16 13h1M19 13h1M24 13h2M28 13h1M41 13h1M48 13h1M53 13h2M56 13h1M63 13h1M66 13h2M69 13h1M72 13h2M76 13h1M79 13h3M86 13h1M91 13h2M98 13h1M102 13h3M106 13h1M111 13h1M113 13h1M117 13h1M121 13h2M129 13h1M131 13h1M136 13h2M157 13h1M160 13h1M164 13h5M172 13h1M177 13h1M191 13h3M206 13h4M212 13h1M227 13h1M229 13h1M232 13h3M241 13h2M260 13h1M7 14h1M11 14h1M16 14h1M18 14h1M21 14h2M25 14h1M28 14h2M34 14h1M48 14h2M51 14h2M64 14h1M66 14h1M69 14h2M73 14h1M76 14h1M78 14h1M86 14h2M89 14h1M91 14h2M99 14h1M101 14h1M103 14h1M105 14h1M109 14h2M114 14h1M116 14h1M119 14h2M127 14h1M132 14h1M136 14h2M160 14h1M169 14h1M172 14h1M179 14h1M188 14h1M190 14h1M192 14h1M206 14h2M210 14h1M219 14h1M221 14h1M224 14h1M226 14h3M230 14h3M234 14h1M238 14h2M243 14h1M256 14h1M266 14h1M6 15h1M8 15h1M11 15h1M13 15h2M17 15h1M19 15h1M23 15h1M25 15h1M39 15h1M49 15h1M54 15h1M56 15h1M65 15h1M67 15h1M71 15h1M73 15h2M80 15h1M87 15h2M99 15h1M106 15h1M109 15h1M111 15h2M117 15h1M119 15h1M121 15h1M133 15h1M138 15h1M157 15h2M161 15h1M163 15h1M167 15h1M169 15h2M193 15h1M206 15h1M208 15h1M210 15h2M235 15h1M238 15h1M240 15h1M8 16h1M10 16h2M13 16h2M23 16h2M28 16h1M30 16h1M36 16h1M48 16h2M54 16h1M57 16h2M63 16h1M71 16h2M74 16h1M78 16h1M85 16h1M91 16h2M97 16h1M101 16h1M104 16h1M107 16h1M111 16h3M121 16h2M128 16h1M157 16h4M167 16h2M171 16h1M174 16h1M180 16h2M191 16h1M193 16h1M208 16h2M211 16h1M225 16h4M230 16h1M233 16h1M237 16h5M243 16h1M257 16h1M264 16h1M11 17h1M15 17h2M19 17h1M22 17h1M25 17h1M28 17h1M36 17h2M40 17h1M48 17h2M52 17h2M57 17h1M63 17h2M66 17h4M72 17h1M84 17h1M88 17h1M91 17h2M99 17h1M102 17h1M106 17h2M114 17h1M117 17h2M121 17h2M134 17h1M159 17h2M162 17h2M165 17h2M171 17h2M174 17h1M180 17h2M189 17h1M191 17h1M193 17h2M196 17h1M201 17h1M206 17h2M211 17h3M221 17h2M228 17h2M231 17h1M234 17h2M238 17h1M242 17h2M257 17h1M263 17h2M267 17h1M6 18h2M14 18h1M22 18h1M24 18h1M26 18h3M33 18h7M47 18h1M50 18h5M70 18h1M72 18h2M77 18h1M81 18h2M84 18h4M90 18h2M97 18h1M101 18h1M104 18h2M112 18h1M120 18h1M122 18h1M131 18h2M134 18h4M158 18h1M166 18h1M168 18h1M171 18h2M177 18h1M180 18h3M188 18h3M192 18h1M207 18h1M209 18h1M212 18h2M219 18h5M226 18h1M230 18h1M241 18h1M260 18h1M262 18h1M265 18h2M10 19h1M12 19h4M20 19h1M23 19h1M33 19h3M41 19h1M47 19h2M50 19h3M62 19h2M66 19h3M71 19h1M77 19h1M79 19h1M81 19h1M87 19h1M89 19h1M96 19h3M101 19h1M121 19h1M127 19h1M129 19h1M131 19h2M136 19h1M158 19h4M166 19h2M173 19h1M175 19h1M177 19h1M182 19h1M188 19h2M197 19h3M201 19h1M208 19h1M214 19h1M219 19h1M226 19h2M230 19h1M244 19h2M258 19h1M260 19h3M7 20h2M10 20h1M13 20h1M20 20h1M26 20h1M31 20h1M33 20h2M40 20h2M47 20h1M49 20h1M51 20h1M55 20h2M64 20h1M67 20h3M77 20h3M81 20h2M84 20h1M89 20h3M97 20h5M105 20h3M128 20h2M131 20h2M137 20h1M158 20h2M163 20h1M165 20h1M174 20h2M177 20h2M184 20h1M188 20h1M192 20h2M199 20h2M204 20h1M210 20h3M219 20h1M224 20h1M226 20h2M229 20h2M258 20h1M260 20h2M266 20h1M5 21h1M7 21h1M10 21h1M13 21h1M23 21h3M35 21h2M38 21h1M40 21h2M49 21h1M52 21h2M55 21h1M67 21h1M72 21h1M84 21h1M86 21h1M89 21h1M91 21h1M98 21h2M102 21h2M132 21h3M136 21h1M160 21h4M179 21h2M182 21h1M189 21h2M197 21h2M200 21h3M208 21h3M219 21h1M221 21h1M223 21h2M227 21h2M261 21h1M263 21h1M265 21h1M267 21h1M4 22h3M13 22h2M24 22h1M32 22h1M35 22h1M38 22h1M41 22h1M51 22h1M54 22h1M56 22h1M69 22h1M78 22h1M80 22h1M82 22h3M86 22h1M89 22h2M101 22h4M106 22h1M128 22h1M130 22h1M133 22h1M135 22h2M158 22h2M161 22h1M163 22h1M168 22h1M190 22h2M193 22h1M198 22h1M206 22h1M215 22h1M220 22h1M223 22h1M230 22h1M265 22h1M268 22h2M10 23h1M12 23h2M22 23h2M30 23h3M35 23h2M41 23h1M46 23h1M48 23h1M50 23h2M53 23h2M56 23h1M61 23h1M64 23h2M83 23h1M89 23h2M97 23h1M101 23h1M106 23h1M128 23h3M133 23h2M161 23h2M166 23h2M174 23h3M179 23h2M193 23h1M195 23h1M198 23h1M207 23h2M215 23h1M220 23h2M225 23h3M229 23h1M4 24h2M9 24h2M19 24h1M22 24h1M24 24h1M30 24h1M32 24h1M37 24h4M47 24h1M49 24h1M52 24h1M54 24h1M56 24h1M61 24h1M63 24h3M70 24h1M91 24h1M102 24h3M106 24h1M127 24h4M132 24h1M134 24h4M159 24h3M167 24h2M174 24h3M178 24h1M182 24h1M184 24h1M189 24h1M191 24h1M193 24h3M198 24h1M211 24h2M222 24h1M224 24h1M226 24h1M228 24h1M231 24h1M261 24h1M264 24h1M266 24h2M3 25h1M20 25h2M24 25h1M31 25h1M46 25h2M50 25h2M64 25h2M68 25h1M81 25h2M84 25h1M89 25h3M97 25h4M127 25h1M129 25h1M134 25h2M160 25h2M173 25h1M175 25h1M177 25h2M180 25h4M196 25h2M220 25h2M224 25h3M229 25h1M260 25h1M262 25h1M265 25h2M268 25h2M3 26h1M12 26h1M18 26h1M32 26h1M35 26h2M39 26h1M45 26h1M48 26h4M62 26h1M64 26h1M67 26h2M83 26h1M86 26h1M89 26h1M97 26h1M99 26h2M102 26h1M112 26h1M114 26h1M117 26h1M131 26h4M138 26h4M144 26h5M158 26h1M160 26h1M169 26h1M176 26h3M183 26h2M199 26h1M210 26h1M212 26h1M220 26h1M222 26h2M225 26h1M227 26h4M259 26h4M264 26h1M267 26h1M269 26h2M3 27h2M9 27h1M29 27h3M45 27h3M51 27h1M53 27h1M64 27h2M67 27h4M90 27h1M96 27h1M98 27h1M103 27h1M107 27h1M109 27h1M127 27h3M142 27h3M147 27h2M152 27h2M160 27h1M163 27h4M169 27h1M173 27h4M183 27h1M189 27h1M194 27h1M197 27h1M205 27h1M207 27h1M210 27h1M213 27h3M225 27h2M230 27h2M267 27h1M269 27h1M5 28h2M31 28h1M38 28h1M48 28h1M50 28h1M52 28h2M67 28h1M70 28h1M80 28h2M86 28h2M98 28h1M104 28h2M110 28h1M116 28h2M119 28h2M122 28h1M130 28h2M136 28h1M140 28h1M144 28h1M150 28h1M152 28h1M162 28h2M165 28h1M168 28h2M175 28h1M189 28h3M197 28h1M199 28h1M206 28h2M209 28h2M216 28h1M227 28h2M260 28h1M266 28h2M270 28h1M3 29h1M6 29h1M9 29h1M11 29h1M30 29h1M36 29h2M46 29h2M50 29h2M54 29h1M60 29h4M71 29h1M84 29h2M90 29h1M96 29h2M104 29h1M106 29h1M109 29h1M111 29h3M121 29h2M128 29h1M140 29h1M143 29h1M145 29h1M147 29h1M150 29h1M152 29h1M158 29h1M160 29h1M167 29h2M174 29h1M183 29h2M191 29h1M193 29h1M198 29h1M200 29h1M208 29h2M212 29h1M215 29h1M221 29h1M226 29h2M229 29h1M263 29h2M270 29h1M4 30h1M6 30h1M9 30h1M11 30h1M36 30h2M48 30h1M52 30h1M55 30h1M63 30h2M67 30h1M69 30h2M84 30h2M88 30h1M95 30h1M98 30h1M104 30h4M114 30h1M117 30h1M128 30h1M134 30h2M138 30h1M148 30h1M150 30h1M153 30h1M159 30h1M163 30h2M166 30h1M169 30h1M174 30h1M180 30h1M189 30h2M194 30h1M196 30h1M200 30h1M207 30h2M210 30h4M215 30h1M221 30h1M229 30h1M231 30h2M263 30h1M267 30h4M2 31h3M6 31h1M28 31h1M33 31h6M47 31h1M51 31h3M62 31h1M70 31h1M81 31h3M85 31h2M90 31h1M97 31h1M103 31h1M105 31h1M112 31h1M120 31h1M122 31h1M131 31h1M137 31h1M143 31h1M147 31h4M158 31h1M166 31h1M168 31h2M177 31h2M180 31h1M182 31h1M184 31h1M199 31h1M207 31h1M209 31h4M222 31h5M229 31h2M232 31h1M262 31h4M269 31h2M10 32h1M38 32h1M114 32h1" />
<path stroke="#595558" d="M21 1h1M36 1h1M61 1h1M65 1h1M10 2h1M50 2h1M61 2h1M182 2h1M231 2h1M241 2h1M271 2h1M212 3h1M232 3h1M263 3h1M35 4h1M46 4h1M233 4h2M242 4h1M245 4h1M20 5h1M64 5h1M83 5h1M186 5h1M9 6h1M20 6h1M35 6h2M49 6h1M75 6h2M123 6h1M253 6h1M12 7h3M22 7h1M37 7h1M84 7h1M87 7h1M97 7h1M139 7h1M171 7h1M193 7h1M202 7h1M216 7h1M253 7h1M8 8h1M37 8h1M45 8h1M58 8h3M88 8h2M97 8h1M163 8h1M183 8h1M193 8h1M213 8h1M265 8h1M30 9h1M37 9h1M100 9h3M163 9h1M168 9h1M228 9h1M254 9h1M22 10h1M48 10h1M63 10h1M108 10h1M159 10h2M163 10h1M202 10h1M93 11h1M133 11h2M157 11h1M163 11h1M202 11h1M266 11h1M29 12h1M44 12h1M78 12h1M81 12h1M93 12h1M163 12h1M217 12h1M229 12h1M35 13h5M43 13h1M59 13h1M116 13h1M138 13h1M180 13h1M205 13h1M244 13h1M255 13h1M40 14h2M187 14h1M214 14h1M236 14h1M43 15h1M47 15h1M62 15h1M96 15h1M179 15h1M196 15h1M236 15h1M267 15h1M115 16h1M256 16h1M8 17h2M43 17h1M76 17h1M245 17h1M9 18h1M58 18h1M138 18h1M184 18h1M218 18h1M268 18h1M46 19h1M92 19h1M115 19h1M122 19h1M157 19h1M215 19h1M234 19h1M19 20h1M27 20h1M73 20h1M92 20h1M157 20h1M172 20h1M257 20h1M15 21h1M42 21h1M61 21h1M269 21h1M30 22h1M65 22h3M14 23h1M18 23h1M26 23h1M57 23h1M68 23h2M72 23h1M107 23h1M188 23h1M200 23h1M219 23h1M231 23h1M262 23h4M8 24h1M13 24h2M45 24h1M71 24h1M81 24h1M84 24h4M169 24h1M200 24h1M8 25h2M41 25h1M88 25h1M95 25h1M138 25h1M165 25h2M204 25h1M209 25h3M214 25h1M216 25h1M270 25h1M7 26h1M13 26h1M17 26h1M25 26h1M29 26h1M60 26h1M72 26h1M88 26h1M204 26h1M213 26h1M7 27h1M13 27h1M88 27h1M101 27h1M259 27h1M11 28h1M44 28h1M56 28h1M79 28h1M88 28h1M91 28h1M101 28h1M161 28h1M173 28h1M185 28h1M232 28h1M271 28h1M40 29h1M79 29h1M87 29h1M91 29h1M161 29h1M173 29h1M220 29h1M28 30h1M87 30h1M102 30h1M115 30h1M160 30h1M201 30h1M12 31h1M59 31h1M71 31h1M136 31h1M189 31h1M201 31h1M260 31h1M11 32h1M28 32h1M39 32h1M43 32h1M55 32h1M71 32h1M99 32h2M103 32h2M133 32h1M137 32h1M158 32h1M189 32h1M205 32h1M49 33h1M64 33h2M101 33h1M133 33h2M197 33h1M50 34h1M65 34h1M101 34h1M133 34h1M180 34h1M197 34h1M51 35h1M102 35h1M132 35h1M147 35h1M180 35h1M102 36h1M146 36h2M146 37h1M194 38h4M12 39h3M221 39h6M84 40h3M160 41h3" />
<path stroke="#b4a9a5" d="M173 1h1M256 1h1M17 2h1M58 2h1M108 2h1M115 2h1M161 2h1M195 2h1M202 2h1M237 2h1M71 3h1M121 3h1M130 3h1M167 3h1M176 3h1M208 3h1M217 3h1M250 3h1M259 3h1M11 4h1M59 4h1M109 4h1M128 4h1M130 4h1M174 4h1M176 4h1M196 4h1M217 4h1M238 4h1M257 4h1M259 4h1M130 5h1M133 5h1M176 5h1M179 5h1M217 5h1M220 5h1M259 5h1M262 5h1M50 6h2M54 6h1M85 6h1M100 6h2M104 6h1M135 6h1M181 6h1M187 6h2M191 6h1M222 6h1M39 7h1M55 7h1M105 7h1M129 7h1M137 7h1M175 7h1M192 7h1M224 7h1M258 7h1M33 8h2M43 8h2M72 8h2M76 8h2M107 8h1M127 8h1M131 8h2M172 8h2M177 8h2M209 8h2M218 8h2M255 8h2M260 8h2M11 9h1M14 9h1M50 9h2M59 9h1M158 9h1M187 9h2M199 9h1M227 9h1M30 10h1M32 10h1M73 10h2M78 10h1M128 10h1M130 10h1M174 10h1M176 10h1M210 10h2M217 10h1M257 10h1M259 10h1M13 11h1M74 11h1M211 11h1M18 12h1M66 12h1M83 12h1M133 12h1M162 12h1M179 12h1M220 12h1M262 12h1M10 13h2M58 13h1M97 13h1M108 13h2M195 13h1M225 13h2M237 13h2M17 14h1M23 14h2M65 14h1M71 14h2M88 14h1M90 14h1M121 14h2M138 14h1M161 14h1M168 14h1M208 14h2M7 15h1M12 15h1M18 15h1M22 15h1M24 15h1M55 15h1M66 15h1M70 15h1M72 15h1M105 15h1M110 15h1M116 15h1M120 15h1M122 15h1M162 15h1M166 15h1M192 15h1M207 15h1M209 15h1M234 15h1M239 15h1M29 16h1M77 16h1M127 16h1M173 16h1M214 16h1M10 17h1M17 17h1M65 17h1M108 17h1M161 17h1M195 17h1M202 17h1M237 17h1M244 17h1M23 18h1M32 18h1M71 18h1M80 18h1M121 18h1M130 18h1M167 18h1M176 18h1M208 18h1M259 18h1M11 19h1M32 19h1M78 19h1M80 19h1M128 19h1M130 19h1M174 19h1M176 19h1M196 19h1M257 19h1M259 19h1M32 20h1M35 20h1M80 20h1M83 20h1M130 20h1M133 20h1M176 20h1M179 20h1M220 20h1M259 20h1M262 20h1M6 21h1M37 21h1M50 21h2M54 21h1M85 21h1M100 21h2M104 21h1M135 21h1M181 21h1M188 21h1M191 21h1M222 21h1M229 21h2M264 21h1M7 22h1M31 22h1M39 22h1M55 22h1M79 22h1M87 22h1M105 22h1M129 22h1M137 22h1M192 22h1M224 22h1M258 22h1M266 22h1M9 23h1M24 23h2M33 23h2M91 23h1M127 23h1M131 23h2M168 23h1M173 23h1M177 23h2M194 23h1M209 23h2M213 23h2M11 24h1M48 24h1M50 24h2M62 24h1M158 24h1M196 24h1M199 24h1M227 24h1M229 24h2M25 25h1M30 25h1M32 25h1M80 25h1M128 25h1M130 25h1M174 25h1M176 25h1M215 25h1M259 25h1M61 26h1M111 26h1M198 26h1M211 26h1M35 27h1M66 27h1M83 27h1M133 27h1M162 27h1M179 27h1M220 27h1M262 27h1M46 28h2M96 28h2M108 28h2M142 28h2M183 28h2M195 28h2M225 28h2M29 29h1M127 29h1M214 29h1M10 30h1M65 30h1M108 30h1M161 30h1M195 30h1M32 31h1M80 31h1M121 31h1M130 31h1M167 31h1M176 31h1M208 31h1" />
<path stroke="#29282a" d="M61 3h1M263 4h1M234 5h1M264 5h1M83 6h2M9 7h3M85 7h2M157 10h2M135 11h2M137 12h2M42 14h3M115 14h1M44 15h1M115 15h1M199 15h4M236 16h1M127 17h1M236 17h1M235 18h2M235 19h1M27 21h1M257 22h1M70 23h2M78 23h4M257 23h5M26 24h1M72 24h1M82 24h2M256 24h2M10 25h5M72 25h1M167 25h3M212 25h2M256 25h1M73 26h1M214 26h3M256 26h1M18 27h8M73 27h1M216 27h1M255 27h1M12 28h2M19 28h8M255 28h1M20 29h8M101 29h1M146 29h1M254 29h1M21 30h7M101 30h1M146 30h1M272 30h1M26 31h2M43 31h1M133 31h2M159 31h1M22 32h6M132 32h1M134 32h1M159 32h1M260 32h1M1 33h12M23 33h5M29 33h11M44 33h5M52 33h5M59 33h5M67 33h5M79 33h8M88 33h3M95 33h6M103 33h12M116 33h7M127 33h6M137 33h9M148 33h6M158 33h12M173 33h6M180 33h6M189 33h7M198 33h4M205 33h12M221 33h12M260 33h13M2 34h11M25 34h3M29 34h11M45 34h5M52 34h5M60 34h5M67 34h6M80 34h7M89 34h2M96 34h5M102 34h1M104 34h19M127 34h6M134 34h1M136 34h10M147 34h7M157 34h13M173 34h6M181 34h4M188 34h9M198 34h3M204 34h12M221 34h11M253 34h1M259 34h13M3 35h11M17 35h1M26 35h3M30 35h11M45 35h6M52 35h6M61 35h6M68 35h5M80 35h8M89 35h3M96 35h6M104 35h19M127 35h5M133 35h1M135 35h10M146 35h1M148 35h5M157 35h12M173 35h7M181 35h4M188 35h13M204 35h12M217 35h1M220 35h12M254 35h1M258 35h13M4 36h11M17 36h1M31 36h11M46 36h12M61 36h12M81 36h7M89 36h3M96 36h6M104 36h19M127 36h6M134 36h11M148 36h5M157 36h12M173 36h11M188 36h13M203 36h12M217 36h2M220 36h11M254 36h1M258 36h12M5 37h11M17 37h1M31 37h11M47 37h12M62 37h12M81 37h8M90 37h3M97 37h6M104 37h17M127 37h6M134 37h11M147 37h6M157 37h12M173 37h11M188 37h8M203 37h12M218 37h1M222 37h8M255 37h1M259 37h10M6 38h7M32 38h11M45 38h1M48 38h11M63 38h11M82 38h11M97 38h21M127 38h18M146 38h7M157 38h11M172 38h9M187 38h7M198 38h1M203 38h11M225 38h4M255 38h1M262 38h6M7 39h5M15 39h2M33 39h11M45 39h1M48 39h11M63 39h12M85 39h8M97 39h26M129 39h16M146 39h7M160 39h8M172 39h11M187 39h11M202 39h12M218 39h3M227 39h2M256 39h11M8 40h10M34 40h8M45 40h1M49 40h11M64 40h11M83 40h1M87 40h7M98 40h25M132 40h12M145 40h8M157 40h2M172 40h11M187 40h11M202 40h11M218 40h10M255 40h11M9 41h10M35 41h5M50 41h10M65 41h10M83 41h11M98 41h25M128 41h16M145 41h8M157 41h3M163 41h5M172 41h10M187 41h11M201 41h11M217 41h10M255 41h10M10 42h10M36 42h10M51 42h10M65 42h11M84 42h10M98 42h25M128 42h16M145 42h8M157 42h10M172 42h10M187 42h10M201 42h11M217 42h9M254 42h9" />
<path stroke="#e1dcd7" d="M13 6h6M110 6h12M140 6h12M193 6h3M202 6h3M227 6h7M235 6h5M247 6h5M266 6h5M90 7h3M159 9h3M132 10h3M33 12h4M6 16h2M200 16h3M16 19h4M28 19h4M109 19h6M116 19h5M169 19h3M231 19h3M237 19h7M63 21h4M175 21h3M200 22h5M259 22h5M84 23h3M98 23h3M163 24h4M206 24h4M19 26h5M2 32h8M29 32h9M44 32h6M52 32h3M59 32h6M67 32h4M79 32h8M88 32h3M95 32h4M106 32h8M117 32h5M128 32h3M139 32h7M148 32h5M161 32h8M175 32h4M180 32h5M190 32h6M197 32h4M206 32h10M222 32h10M262 32h10" />
</svg>