<?xml version="1.0" encoding="UTF-8" standalone="no"?>
<svg
   xmlns:dc="http://purl.org/dc/elements/1.1/"
   xmlns:cc="http://creativecommons.org/ns#"
   xmlns:rdf="http://www.w3.org/1999/02/22-rdf-syntax-ns#"
   xmlns:svg="http://www.w3.org/2000/svg"
   xmlns="http://www.w3.org/2000/svg"
   viewBox="0 0 719.99957 117.50845"
   id="svg209"
   height="117.50845"
   width="719.99957"
   version="1.1">
  <metadata
     id="metadata215">
    <rdf:RDF>
      <cc:Work
         rdf:about="">
        <dc:format>image/svg+xml</dc:format>
        <dc:type
           rdf:resource="http://purl.org/dc/dcmitype/StillImage" />
      </cc:Work>
    </rdf:RDF>
  </metadata>
  <defs
     id="defs213" />
  <g
     transform="translate(0,-4.2458653)"
     id="Layer1000">
    <path
       id="path2"
       style="fill:#000200;fill-rule:evenodd"
       d="m 449.0552,113.9685 -0.1298,0.2286 -0.1598,-0.2813 -0.1599,-0.2812 v -0.5626 -0.5625 l 0.0722,-0.1271 c -0.0743,-0.2065 -0.172,-0.4857 -0.2305,-0.643 -0.1013,-4.2131 0.0449,-8.4263 -0.045,-12.6338 l -0.8156,0.1969 c 0.0168,2.07 -0.2925,4.202 -1.575,5.9007 -0.0901,0.7987 -0.1462,1.5974 -0.1969,2.3962 -0.8269,1.1476 -1.3668,2.4356 -1.0913,3.8756 -1.035,1.6932 -1.8899,3.6732 -1.7437,5.7038 -0.2306,0.2363 -0.6919,0.7088 -0.9224,0.9451 -0.0676,0.838 -0.107,1.6761 -0.1239,2.5199 -10.7719,0.0338 -21.5381,-0.0619 -32.3044,0.028 -0.1293,-20.1768 0.0169,-40.3593 -0.0843,-60.5361 -0.2532,-0.1969 -0.7537,-0.5906 -1.0069,-0.7931 -0.0225,-0.6694 -0.0394,-1.3445 -0.0563,-2.0138 -0.2811,-0.2025 -0.8381,-0.6075 -1.1193,-0.81 0.008,-0.2059 0.0197,-0.5151 0.031,-0.8239 l -0.0623,-0.1029 -0.1067,-0.1757 v -0.3515 -0.3516 l 0.0351,-0.0579 c -0.9544,-0.4261 -0.5281,-1.6718 -0.6733,-2.4903 0.0338,-7.695 0.073,-15.3842 0.0111,-23.0736 -0.1237,-2.4863 1.7213,-4.427 2.2164,-6.7444 0.1518,-5.625 -0.0169,-11.2612 0.0618,-16.8919 24.0412,-0.1237 48.0825,0.0394 72.1294,-0.0507 0.9113,1.8619 1.1756,3.9601 2.1038,5.822 0.5343,1.0294 0.7424,2.1712 0.9055,3.313 1.4232,-3.0711 1.6988,-6.4462 2.5088,-9.6806 23.5857,0.1237 47.1713,-0.0843 70.7568,0.0282 1.0014,1.9463 2.1601,3.8024 3.2176,5.7206 1.1475,-2.0587 2.4918,-4.0387 3.2907,-6.2719 24.1086,-0.0786 48.223,-0.0844 72.3375,-0.0056 0.4105,1.1644 0.838,2.3231 1.2993,3.4763 0.8944,-0.8607 1.6932,-1.8114 2.3626,-2.8688 15.8568,0.2643 31.725,0.0449 47.5875,0.1406 2.3231,-0.045 4.7024,0.2588 6.9806,-0.3881 2.295,-0.6807 4.7025,-0.3656 7.0651,-0.405 3.9374,-0.0169 7.8748,-0.0225 11.8124,0.0169 1.3837,2.6156 4.3144,4.6631 4.0387,7.9144 0,3.3693 -0.073,6.7444 -0.006,10.1137 -0.045,1.1251 0.1182,2.3962 -0.6638,3.3188 -1.4905,1.9012 -2.863,3.9318 -4.6855,5.5349 -2.3513,3.2625 -5.0232,6.2832 -7.5769,9.3882 1.513,1.575 1.4625,3.8813 2.4075,5.7543 1.1925,2.5257 1.6537,5.31 2.8068,7.8526 1.0407,2.3287 1.7551,4.7756 2.3176,7.2617 1.4794,1.9126 1.4118,4.4156 2.4525,6.5307 1.1981,2.5144 1.8169,5.2425 2.683,7.875 0.8269,2.5876 2.1207,4.9894 2.9926,7.56 V 94.212 c -7.3913,7.2617 -14.7207,14.5855 -22.0051,21.9543 -1.8112,1.9013 -4.348,2.8125 -6.2775,4.5449 -9.8437,0.3095 -19.71,0.107 -29.5481,0.0507 -1.4625,-1.4682 -1.0069,-3.8419 -1.8225,-5.6419 -1.6875,-3.8756 -1.8955,-8.2124 -3.5718,-12.0937 -1.215,-6.2156 -3.5663,-12.1781 -4.7194,-18.3937 -1.17,-2.1151 -1.2544,-4.562 -2.1151,-6.7837 -1.1868,-4.7757 -3.0093,-9.3826 -3.9205,-14.2202 -0.1295,-0.6693 -0.7312,-1.0686 -1.1195,-1.5693 -1.153,1.6323 -0.7835,1.6476 -1.1418,2.1826 -5.2465,8.1963 -9.3016,14.8848 -15.6038,22.2692 -4.2243,0.1351 -8.4488,-0.0561 -12.6674,0.0621 0.0111,4.0386 -0.377,8.8254 -3.8476,11.4862 -0.0787,0.2924 -0.2418,0.8718 -0.3206,1.1643 -3.0656,3.8025 -5.5688,8.0269 -8.6232,11.8237 -0.1012,0.2532 -0.3093,0.7537 -0.4105,1.0014 -1.4062,1.3723 -2.0026,3.3579 -3.5325,4.6181 -0.0956,0.2812 -0.287,0.8494 -0.3825,1.1362 -0.7988,0.9731 -1.5525,1.9856 -2.2557,3.0318 -10.6144,0.0338 -21.2231,0.0282 -31.8375,0.006 -0.5456,-2.9251 -0.945,-5.8782 -0.7481,-8.865 -0.225,-0.1969 -0.675,-0.585 -0.8999,-0.782 -0.0452,0.3883 -0.1407,1.1757 -0.1914,1.5639 -2.1712,2.4525 -3.6899,5.3887 -5.6475,8.0043 -3.3299,0.3995 -6.6768,-0.2757 -10.018,-0.1294 -7.3407,0.1688 -14.6926,-0.1968 -22.022,0.2418 0.1687,-2.8461 -0.2419,-5.6642 -0.6918,-8.4656 -0.18,-0.005 -0.5401,-0.0111 -0.7201,-0.0167 -0.1743,1.2431 -0.4217,2.4692 -0.8381,3.6562 -1.7719,1.3275 -3.0319,3.1725 -4.5224,4.7812 -9.6695,-0.2194 -19.3445,-0.1518 -29.0138,-0.006 -0.8269,-2.3401 -1.8113,-4.6181 -2.2444,-7.0706 -0.8832,-1.8675 -0.675,-4.0106 -1.485,-5.8838 -2.0701,0.1126 -1.0912,2.835 -1.7212,4.1626 -1.2038,2.835 -1.3614,5.9737 -2.6156,8.7862 -10.6875,-0.0676 -21.3695,-0.1126 -32.057,0.006 -0.005,-2.2886 -0.0798,-4.5862 0.2141,-6.8553 z" />
    <path
       id="path4"
       style="fill:#000000;fill-rule:evenodd"
       d="m 330.3619,9.9889 c 1.1757,-1.6144 2.4131,-3.1839 3.7294,-4.6913 24.0804,0.0675 48.1666,-0.0674 72.2474,0.0563 0.0955,6.8231 -0.5794,13.618 -0.7764,20.4243 -0.0449,4.3819 -1.3725,8.6231 -1.3725,13.0107 -0.8774,1.2205 -0.1687,2.9531 -0.6411,4.3481 -0.9732,4.32 -0.7482,8.7806 -1.7269,13.0949 -9.2589,0.0901 -18.5176,0.0225 -27.7763,0.045 -3.1049,0.0394 -6.2269,-0.1968 -9.3094,0.2757 0.5176,-4.6406 0.63,-9.3206 0.6807,-13.9894 -2.1881,-1.513 -3.9376,-3.5382 -5.8894,-5.3269 -3.0264,0.1462 -6.0581,0.0901 -9.0845,0.1744 -2.8181,0.1632 -5.4506,-0.9956 -8.1787,-1.4906 0.006,-0.0619 0.0169,-0.1801 0.0226,-0.2419 1.3443,0.1913 2.6944,0.3656 4.0612,0.4388 4.2413,0.3487 8.415,-0.7088 12.6113,-1.1756 0.2249,-0.0283 0.6693,-0.0788 0.8943,-0.1069 1.1138,1.0237 2.2669,2.0024 3.4763,2.925 0.5063,-0.3038 1.0012,-0.63 1.4905,-0.9732 0.5851,-3.5099 0.2813,-7.093 0.5401,-10.6368 0.6918,-0.5569 1.3725,-1.1362 2.0982,-1.6594 10.7381,-0.4443 21.5324,0.3094 32.2594,-0.2138 0.6186,-0.4555 1.2036,-0.9562 1.8111,-1.44 0.2588,-2.8181 0.4106,-5.6419 0.4782,-8.4712 0.7593,-0.5456 1.5524,-1.0463 2.3682,-1.5187 0.1631,-1.6763 0.2643,-3.3582 0.2924,-5.04 -22.7588,0.0843 -45.5176,-0.0394 -68.2763,0.0618 -1.1699,1.007 -1.9349,2.52 -2.6324,3.8925 -0.1856,10.6482 0.0507,21.3019 -0.2586,31.95 -0.006,2.3457 -0.2363,4.7194 0.1968,7.0426 2.5593,-0.1238 5.1186,0.0955 7.6218,0.6805 -1.4119,0.5007 -2.9251,0.405 -4.3876,0.5681 -1.3331,1.0519 -2.2106,2.6269 -3.0373,4.0951 -0.0394,11.2388 0.1125,22.4775 0.0787,33.7163 0.09,0.2361 0.2757,0.7087 0.3657,0.9448 -0.8381,2.6214 -0.5288,5.3832 -0.5962,8.0889 0.006,2.9249 -0.225,5.85 -0.1239,8.7805 2.1599,0.2644 3.3019,1.9631 4.4942,3.5495 2.7001,0.4386 5.4675,-0.1744 8.1619,0.3262 0.54,0.5288 0.7314,1.2938 1.0182,1.9799 -3.1612,-0.6469 -6.4125,-0.7818 -9.5962,-0.2699 -2.3626,0.3375 -2.3962,4.2356 -0.7707,5.3157 13.6519,0.4499 27.3262,0.3373 40.9894,0.433 0.7087,-2.8181 0.7706,-5.8275 2.1093,-8.4656 0.8663,-1.6988 0.602,-3.6675 0.7707,-5.5069 0.005,-2.5931 1.4962,-4.8262 2.0813,-7.2956 0.6918,1.2544 0.5794,2.6494 0.2138,3.9882 -0.737,2.7731 0.0392,5.6249 -0.1633,8.4374 -0.5793,1.9126 -2.5368,3.4088 -2.143,5.58 0.1406,1.1082 0,3.0544 1.6536,2.9307 6.3732,0.2586 12.7576,-0.0338 19.1307,0.2811 0.9057,-3.6168 0.8325,-7.3855 1.5862,-11.0305 0.3994,-5.1132 1.5639,-10.1699 1.4963,-15.3056 -0.6863,-0.0788 -1.3725,-0.1462 -2.0531,-0.1914 0.6413,-0.6073 1.2994,-1.1981 1.9576,-1.7887 l 0.4949,-0.4219 c 0.1182,-4.0555 -0.3206,-8.1 -0.1744,-12.1555 0.3375,-1.9069 -1.5693,-2.9138 -2.5762,-4.2018 -12.2457,0.1631 -24.5026,-0.0114 -36.7313,0.3712 -1.3726,-0.4782 -2.1826,-1.8056 -3.1893,-2.7676 0.765,-4.635 1.4569,-9.2812 2.1937,-13.9218 0.3989,-0.2296 1.9591,-1.0463 1.974,-0.7524 0.1825,3.5904 -0.5404,10.8081 -0.5957,14.6104 13.8825,0.2869 26.4635,0.1384 40.3517,0.2228 0.0843,4.9332 0.7725,10.523 0.7556,15.456 0.1406,7.1662 -1.5637,14.2088 -1.6144,21.3695 -0.0168,4.2356 -1.26,8.4093 -0.81,12.6505 -2.4581,0.6075 -4.9949,0.3037 -7.4868,0.3544 -20.2613,0 -40.5282,-0.0338 -60.7894,0.0169 -1.0238,-0.0225 -2.0361,-0.1913 -3.0373,-0.3544 -0.0225,-3.5663 0.2419,-7.1494 -0.0788,-10.7043 -0.765,-0.5514 -2.2275,-0.7314 -2.1093,-1.9464 -0.7989,-22.6687 -0.3432,-45.3711 -0.6638,-68.0455 -0.2306,-10.125 -0.2081,-20.2612 -0.1069,-30.3862 z M 26.6568,5.1739 c 4.7588,0.8943 9.6132,0.4106 14.4225,0.4893 5.6982,0.0563 11.3963,-0.0956 17.0888,0.0788 3.5324,3.6225 7.1213,7.1832 10.7325,10.7212 0.0618,1.3894 0.1237,2.7788 0.1687,4.1681 1.7212,2.07 4.157,3.4031 5.7937,5.5407 1.0576,0.8325 2.025,1.9069 3.3751,2.2611 0.2981,-1.4061 0.6299,-2.8011 0.9112,-4.2017 0.7481,-0.81 1.5975,-1.5132 2.5931,-1.9857 0.0804,-6.1894 0.0925,0.8132 7.4589,0.2363 0.0167,-1.6313 -0.107,-3.2738 0.0618,-4.8993 0.5682,-0.9845 1.6143,-1.5188 2.5932,-2.0139 0.0561,-2.5199 -0.0058,-5.04 0.1349,-7.5599 0.72,-0.7537 1.4063,-1.5637 2.2557,-2.1881 1.9349,-0.3995 3.9318,-0.1407 5.895,-0.1801 8.0493,-0.0169 16.0987,0.0112 24.148,-0.0507 0.8551,0.0227 1.727,0 2.5651,0.2025 0.6524,0.8607 1.243,1.7889 2.1262,2.4469 0.4669,0.5063 0.4838,1.8339 1.4062,1.6031 0.4557,-1.3612 0.6075,-2.8012 0.9226,-4.1962 11.6324,-0.0336 23.265,-0.0899 34.8974,-0.0056 0.2419,1.3895 0.557,2.7619 0.8383,4.1457 1.3892,-1.1925 2.908,-2.2163 4.2186,-3.4876 10.3162,-0.0786 20.6382,0 30.9545,-0.0506 2.43,4.7588 3.4312,10.1306 5.9344,14.8669 0.4386,0.8213 1.5187,0.7706 2.2499,1.1925 0.6131,0.9113 0.9618,2.0306 1.8619,2.7282 0.1518,1.1474 0.9393,2.025 2.1094,2.1992 -0.0732,-2.2386 0.6131,-4.3762 0.8044,-6.5812 -0.0639,-3.2593 -0.0521,-6.6745 1.0139,-9.7835 l -0.0558,0.0503 -0.006,-0.2178 -0.006,-0.2178 0.1555,-0.3636 0.1556,-0.3635 0.1619,-0.1459 0.1054,-0.0951 c 0.0478,-1.3833 0.5729,-2.6758 1.2263,-3.8931 3.4763,0.0114 6.9526,0.0788 10.4287,0.09 1.9013,0.0169 3.7127,-0.7649 5.6251,-0.63 5.192,0.1181 10.3838,-0.2025 15.5756,-0.0225 0.4388,1.395 0.9731,2.7507 1.575,4.0782 0.0563,1.108 0.2644,2.1993 0.6807,3.2287 0.7537,1.8 0.3149,4.1401 2.07,5.4337 -0.2531,-2.953 0.4782,-5.7768 1.1981,-8.6062 1.2319,-0.675 2.2613,-1.6481 2.8799,-2.925 0.9901,-0.3093 1.9914,-0.6524 3.0433,-0.6918 22.4606,-0.0507 44.9212,0 67.3818,-0.0507 -0.2025,5.5969 -0.0394,11.1938 -0.0899,16.7907 0.0224,31.6292 -0.0169,63.2586 0.0169,94.888 -0.2419,0.2194 -0.737,0.6638 -0.9789,0.8832 -0.1518,1.4119 -0.8269,2.6494 -1.845,3.6225 -22.7305,-0.0338 -45.4668,0.0449 -68.1975,-0.0563 -1.3557,-3.3862 -2.6944,-6.7782 -3.7574,-10.2768 -1.3839,0.073 -1.0014,2.4356 -1.3163,3.5044 -1.2206,2.1149 -1.1137,4.6575 -2.1151,6.8623 -10.153,-0.1462 -20.3119,0.0451 -30.4649,-0.1068 -0.5512,-0.5399 -1.1026,-1.08 -1.6538,-1.6087 -0.0394,-0.3431 -0.1069,-1.0182 -0.1407,-1.3556 -0.2249,-0.2194 -0.6805,-0.6582 -0.9112,-0.8776 -0.1687,-1.153 -0.8888,-2.0418 -1.6594,-2.8631 -0.1518,-1.1643 -0.9055,-2.0137 -1.7043,-2.8012 -0.1294,-0.8607 -0.5175,-1.62 -1.0856,-2.2613 -0.2194,-1.17 -0.9563,-2.0644 -1.8225,-2.8237 -0.0338,-0.3319 -0.1125,-0.9957 -0.1519,-1.3275 -0.2194,-0.2194 -0.6581,-0.6638 -0.8775,-0.8888 -0.1406,-1.1981 -0.9225,-2.0813 -1.7663,-2.8687 -0.0337,-0.3263 -0.1011,-0.99 -0.1405,-1.3162 -0.2307,-0.2138 -0.6863,-0.6413 -0.917,-0.8551 -0.18,-1.0068 -0.6075,-2.0025 -1.5299,-2.5424 -0.1351,1.4568 -0.2307,2.9193 -0.225,4.3874 0.1124,3.4425 -1.2432,6.7276 -1.1645,10.1701 0.1407,3.3355 -0.613,6.6149 -1.0687,9.9056 -10.6987,-0.0788 -21.3974,0.0787 -32.0963,-0.0507 -1.44,-1.1474 -2.4018,-2.728 -3.6281,-4.0556 -1.6763,0.7032 -2.2669,2.8799 -3.6337,4.0838 -9.8831,0.045 -19.772,0.1518 -29.6493,-0.0788 -0.3151,-0.6918 -0.9282,-1.0801 -1.5751,-1.4175 -0.4726,-0.8325 -1.0688,-1.5863 -1.8563,-2.1376 -0.2588,-0.1348 -0.7762,-0.3936 -1.035,-0.5231 -0.8832,-1.0406 -1.8338,-2.025 -2.8857,-2.8855 -0.0843,2.3456 -0.0674,4.7024 -0.0786,7.0536 -10.5132,0 -21.0319,0.0788 -31.545,-0.0505 -1.9463,-1.8338 -3.7294,-3.8194 -5.4112,-5.9007 -2.7057,-2.4018 -4.6633,-5.4843 -7.2845,-7.9705 -1.4568,-1.4064 -2.4413,-3.24 -4.0219,-4.5169 -3.2062,-0.4163 -6.4687,0.1743 -9.6749,-0.3095 -0.6638,-0.4611 -1.3162,-0.9168 -1.9689,-1.3781 -0.2025,-0.2306 -0.613,-0.6863 -0.8211,-0.9168 -0.2363,-0.1632 -0.7088,-0.4894 -0.9451,-0.6525 -0.3431,-0.332 -1.0294,-0.99 -1.3725,-1.3218 -0.6694,3.0936 -0.8381,6.2661 -1.3893,9.3768 -0.7594,4.0106 0.1687,8.3193 -1.727,12.0937 -0.7312,0.4106 -1.44,0.8606 -2.1262,1.3443 -3.4199,0.3545 -6.8624,0.1632 -10.2881,0.1914 -7.5881,-0.0676 -15.1875,0.2136 -22.77,-0.1406 -2.0081,-2.2783 -3.8025,-4.7307 -5.8275,-6.9863 -2.8969,-3.2288 -5.6081,-6.615 -8.4038,-9.9225 C 7.8187,101.4906 5.1469,98.0595 2.3849,94.7125 1.7887,93.9363 0.8156,93.6494 0,93.177 V 83.2995 L 0.3149,83.17 c 1.0519,-0.7086 1.4064,-1.963 1.9069,-3.0543 2.1544,-4.9894 4.9163,-9.7762 6.2494,-15.0806 0.3376,-2.5144 1.1643,-4.9107 1.6256,-7.3968 0.6863,-0.8269 1.3669,-1.6819 1.6988,-2.7226 0.9168,-1.5244 2.205,-2.835 2.9024,-4.4775 0.0338,-1.8281 -0.4893,-3.6619 -0.1406,-5.4787 0.3769,-1.3725 1.0463,-2.6494 1.3275,-4.05 0.9845,-4.23 2.5538,-8.3194 3.2176,-12.6112 0.3994,-1.665 1.98,-2.6719 2.6774,-4.1851 -0.2025,-1.693 -1.4119,-3.825 -0.0056,-5.2931 1.8675,-2.0812 2.5707,-4.8882 2.8913,-7.5994 C 25.048,9.5726 25.858,7.9976 25.6837,6.2538 26.0044,5.8882 26.325,5.5282 26.6568,5.1739 Z" />
    <path
       id="path6"
       style="fill:#000000;fill-rule:evenodd"
       d="m 514.2206,23.0501 c 1.1306,0.0337 2.2668,0.0562 3.4087,0.0788 0.3544,0.0056 1.0576,0.0112 1.4119,0.0168 1.1869,2.2388 1.0574,4.7756 0.8832,7.2225 -0.152,0.1406 -0.4557,0.4275 -0.6133,0.5681 -3.3524,-0.1181 -6.7949,0.2475 -10.0912,-0.2025 -0.838,-2.4694 -2.0025,-4.9893 -1.3893,-7.6556 2.1263,-0.0732 4.2581,0.0056 6.39,-0.0281 z" />
    <path
       id="path8"
       style="fill:#000000;fill-rule:evenodd"
       d="m 441.2474,23.59 c 2.5481,-0.0505 5.1019,0 7.6557,0.0901 0.9505,0.3094 1.5974,1.1587 2.368,1.7662 -0.0674,4.5 0.3264,8.9944 0.2588,13.4943 -2.475,-0.2643 -4.9781,-0.0055 -7.4418,-0.3373 -0.006,-2.6325 -0.0338,-5.265 -0.006,-7.8975 -0.8831,-0.8719 -1.9912,-1.5751 -2.6212,-2.6608 -0.1631,-1.4793 -0.1126,-2.9756 -0.2138,-4.455 z" />
    <path
       id="path10"
       style="fill:#000000;fill-rule:evenodd"
       d="m 530.7468,30.9532 c 0.0957,-2.5201 0.0507,-5.1526 1.2375,-7.4531 h 0.4613 c 1.53,-0.0056 3.0655,-0.0113 4.6012,-0.0957 1.7212,0.0114 3.4425,0.0563 5.1695,0.0169 0.3093,2.4187 0.7368,4.8262 0.9787,7.262 -4.1513,0.1293 -8.3025,0.1967 -12.4482,0.2699 z" />
    <path
       id="path12"
       style="fill:#000000;fill-rule:evenodd"
       d="m 520.543,31.5663 c 3.2907,-0.1575 6.5757,-0.4893 9.8831,-0.4838 0.7651,1.7551 1.5864,3.4819 2.3345,5.2481 1.7213,0.0788 3.4481,0.0394 5.1749,-0.0955 0.4838,2.1149 2.0644,3.6056 3.4763,5.1355 -0.0674,3.4708 -0.0787,6.9469 -0.135,10.4176 -1.62,0.1407 -3.2456,0.2081 -4.86,0.18 -0.1912,-1.4962 -0.4387,-2.9869 -0.5512,-4.4943 -0.7595,-0.4613 -1.592,-0.7764 -2.4581,-0.9451 -0.7763,-0.1856 -1.5301,-0.3712 -2.2838,-0.5737 -2.61,-1.215 -5.5576,-0.6469 -8.2913,-0.2644 -0.0899,1.9238 -0.3318,3.8306 -0.4725,5.7544 -1.4962,-0.0169 -2.9812,-0.0563 -4.4605,-0.1351 -0.2081,-2.5593 -0.4726,-5.2988 -2.7507,-6.9074 0.0506,-2.3007 -0.0674,-4.6068 0.0788,-6.9019 1.6256,-0.6412 3.6168,-0.3881 5.3606,-0.8606 -0.0507,-1.6932 -0.0562,-3.3806 -0.0451,-5.0738 z" />
    <path
       id="path14"
       style="fill:#000000;fill-rule:evenodd"
       d="m 74.1656,58.7856 c 0.1181,-0.0955 0.3544,-0.2755 0.4724,-0.3712 2.2782,0.1069 4.562,0.1238 6.8456,0.1462 -0.0674,0.2813 -0.1912,0.8438 -0.253,1.1251 -2.2894,8.2968 -4.4719,16.6219 -6.7838,24.9131 -2.5875,-2.7169 -4.6181,-5.9344 -7.4475,-8.4093 0.4275,-0.5739 0.8438,-1.1645 1.2599,-1.7495 0.81,-1.1474 1.5695,-2.3568 1.9801,-3.7125 1.3051,-3.9825 2.5706,-7.9818 3.9263,-11.9419 z" />
    <path
       id="path16"
       style="fill:#000000;fill-rule:evenodd"
       d="m 423.27,83.2994 c 0.1912,-3.3356 -0.2532,-6.9299 1.7155,-9.855 -0.2644,3.0375 0.4501,6.0244 0.4838,9.045 -0.4725,1.5132 -1.8168,2.5987 -2.8068,3.8026 -0.5401,-0.6863 -1.0801,-1.3614 -1.6313,-2.0308 0.7369,-0.3262 1.4907,-0.6411 2.2388,-0.9618 z" />
    <path
       id="path18"
       style="fill:#000000;fill-rule:evenodd"
       d="m 302.4111,89.7007 c 0.225,-3.4032 1.2094,-6.6881 2.1826,-9.9394 0.0113,3.3356 -0.8045,6.8625 0.4443,10.0631 0.1687,0.3881 0.5119,1.1644 0.6807,1.5525 -1.3051,1.3782 -1.7944,3.1951 -2.3681,4.9444 -0.107,0.0505 -0.3151,0.1631 -0.4219,0.2136 -0.4444,-1.288 -0.6807,-2.638 -0.7368,-3.9992 0.0449,-0.9451 0.1349,-1.89 0.2192,-2.835 z" />
    <path
       id="path20"
       style="fill:#000000;fill-rule:evenodd"
       d="m 384.4688,80.9818 c 0.4443,0.8832 1.0911,1.6876 1.3162,2.6663 0.0899,1.6594 -0.3883,3.3357 -0.1126,4.9838 0.495,0.7087 1.0857,1.3612 1.7382,1.9462 0.6638,0.6863 1.5412,1.0801 2.4131,1.44 -0.8494,0.9001 -1.5468,1.9182 -2.1149,3.015 -0.5401,0.2419 -1.0744,0.4893 -1.6089,0.7426 -0.4724,0.7592 -1.0294,1.4624 -1.6594,2.0981 -0.4219,-1.5245 -0.838,-3.0488 -1.2544,-4.5675 0.4164,-1.3781 0.4894,-2.807 -0.0505,-4.1569 -0.4275,-2.7675 1.7437,-5.3157 1.3332,-8.1676 z" />
    <path
       id="path22"
       style="fill:#000000;fill-rule:evenodd"
       d="m 229.7249,81.9943 c 0.855,2.5032 2.0813,4.9951 1.7494,7.7233 -0.0168,0.7593 0.1237,1.4849 0.4107,2.1881 -1.4794,1.9349 0.7593,3.5381 1.8899,4.8938 -0.0787,1.215 -0.7594,2.3399 -0.6974,3.5605 0.8381,1.502 2.0925,2.7225 3.0712,4.1345 -2.655,-0.5683 -4.9331,-2.8633 -4.7588,-5.7038 0.225,-1.7495 -1.5693,-2.1937 -2.6999,-3.0264 -0.2419,-1.0855 -0.1745,-2.2106 -0.152,-3.313 0.2194,-0.9057 0.5063,-1.7944 0.7819,-2.6832 0.9338,-2.4974 0.4725,-5.1806 0.405,-7.7738 z" />
    <path
       id="path24"
       style="fill:#000000;fill-rule:evenodd"
       d="m 265.8881,81.91 c 0.3149,0.1462 0.9506,0.4275 1.2655,0.5739 1.3557,2.61 2.8464,5.1524 4.0838,7.8243 0.2813,0.1687 0.8381,0.5006 1.1194,0.6693 -1.0575,0.9787 -1.8506,2.2894 -1.5975,3.7801 0.7763,0.7199 1.6707,1.2993 2.4413,2.0306 -0.3094,2.835 -1.4175,5.5406 -1.7101,8.3924 -2.5987,-2.0193 0.3037,-5.2931 -0.7255,-7.7062 -2.3906,-2.0868 -3.7126,-5.3944 -6.9413,-6.4012 0.4106,-0.2194 1.2262,-0.6525 1.6312,-0.8719 0.4895,-2.6494 0.2701,-5.5518 0.4332,-8.2913 z" />
    <path
       id="path26"
       style="fill:#000000;fill-rule:evenodd"
       d="m 131.4617,87.5125 c 0.1464,-1.0574 0.7201,-1.9744 1.1926,-2.9081 0.2307,0.9844 0.4219,1.98 0.7425,2.9362 0.7257,1.0013 1.6932,1.8 2.4806,2.7562 0.2925,0.6863 0.5569,1.3895 0.7988,2.0982 -0.1912,2.0137 -0.3656,4.0331 -0.225,6.0581 -1.44,-1.3162 -2.6325,-2.8686 -3.8925,-4.3424 -1.71,-1.7495 -0.8945,-4.41 -1.097,-6.5982 z" />
    <path
       id="path28"
       style="fill:#000000;fill-rule:evenodd"
       d="m 355.1849,87.2707 c 0.5289,-0.3826 0.9281,-1.4569 1.7045,-1.187 0.9112,1.9351 2.908,2.8744 4.2581,4.4325 l 0.388,0.4219 c -0.9675,1.2769 -1.828,2.627 -2.7056,3.9657 -0.9563,1.5356 -3.1106,1.648 -4.1006,3.1556 -1.1418,1.6537 -2.205,3.3749 -3.5157,4.905 0.0619,1.0575 0.1295,2.1207 0.1969,3.1837 -1.0912,-1.4625 -2.3792,-3.0486 -2.0755,-5.0118 0.8661,-0.6413 2.2725,-0.6862 2.6944,-1.8225 0.6411,-1.6031 1.5187,-3.0769 2.5649,-4.455 0.0732,-2.3681 0.006,-4.7587 0.5175,-7.0932 z" />
    <path
       id="path30"
       style="fill:#000000;fill-rule:evenodd"
       d="m 469.8225,92.3107 c 1.5862,-1.1645 0.7874,-3.6001 2.098,-5.0062 0.332,0.9956 0.7651,2.0136 0.6751,3.088 -0.2587,2.4356 0.5906,4.8037 0.3712,7.2395 -0.6019,-0.8832 -1.3331,-1.6763 -2.34,-2.0757 -0.4781,-1.0237 -0.8156,-2.1094 -0.8043,-3.2456 z" />
    <path
       id="path32"
       style="fill:#000000;fill-rule:evenodd"
       d="m 514.3612,91.4106 c 0.4782,-0.9449 0.9562,-1.89 1.44,-2.8293 0.6188,0.7593 1.2206,1.5299 1.845,2.3006 -0.1576,1.4006 -0.2419,2.8125 -0.3038,4.2244 -1.1024,-1.1476 -2.1038,-2.3795 -2.9812,-3.6957 z" />
    <path
       id="path34"
       style="fill:#000000;fill-rule:evenodd"
       d="m 171.4893,90.3195 c 1.3218,-1.0857 3.1501,-0.0451 4.7025,-0.3095 l 0.2194,0.7875 c -0.1182,1.8563 -0.7987,3.69 -0.6075,5.5576 0.7537,1.1418 1.7212,2.1937 2.0081,3.5831 -1.1419,-0.9957 -2.34,-1.9406 -3.7406,-2.5481 -0.3037,-1.3276 -0.5907,-2.6607 -0.9169,-3.9826 -0.7313,-0.5287 -1.4175,-1.1306 -1.9632,-1.8505 0.0732,-0.3095 0.2252,-0.9282 0.2982,-1.2375 z" />
    <path
       id="path36"
       style="fill:#ada3a1;fill-rule:evenodd"
       d="m 364.573,57.4976 c -0.7368,4.6406 -1.4286,9.2868 -2.1936,13.9218 1.0067,0.9619 1.8167,2.2894 3.1892,2.7675 12.2288,-0.3825 24.4856,-0.208 36.7313,-0.3712 1.0069,1.2881 2.9138,2.295 2.5762,4.2018 -0.1462,4.0556 0.2926,8.1 0.1745,12.1556 l -0.495,0.4219 0.1799,-0.8381 c -5.8218,-0.2025 -11.6549,-0.1181 -17.4769,-0.0282 l 0.152,0.8494 c -0.6525,-0.585 -1.2432,-1.2375 -1.7382,-1.9462 -0.2757,-1.6481 0.2025,-3.3244 0.1126,-4.9838 -0.2251,-0.9787 -0.8719,-1.7831 -1.3162,-2.6663 0.4105,2.8519 -1.7607,5.4001 -1.3332,8.1676 l 0.045,0.5682 c -7.1832,-0.0901 -14.372,-0.1632 -21.5438,0.0169 -0.1237,0.1967 -0.3656,0.585 -0.4893,0.7817 -1.3501,-1.5581 -3.3469,-2.4974 -4.2581,-4.4325 -0.7764,-0.2699 -1.1756,0.8044 -1.7045,1.187 l -0.0731,0.4949 c -1.8563,0.0226 -3.7124,0.1126 -5.5687,0.1857 -0.7651,0.8662 -1.5019,1.7549 -2.2331,2.655 l 0.0561,-0.9056 c -4.4661,-0.0281 -8.9436,-0.2475 -13.393,0.1125 0.0338,-11.2387 -0.1182,-22.4775 -0.0788,-33.7162 0.8269,-1.4682 1.7043,-3.0432 3.0375,-4.0951 1.4625,-0.1631 2.9756,-0.0675 4.3876,-0.5681 -2.5032,-0.585 -5.0625,-0.8043 -7.622,-0.6806 -0.4331,-2.3231 -0.2025,-4.6968 -0.1968,-7.0425 0.3093,-10.6481 0.073,-21.3019 0.2586,-31.95 0.6976,-1.3725 1.4627,-2.8855 2.6325,-3.8925 22.7588,-0.1012 45.5176,0.0225 68.2764,-0.0618 -0.0281,1.6818 -0.1294,3.3637 -0.2925,5.04 -0.8157,0.4724 -1.6088,0.9731 -2.3681,1.5187 -0.0676,2.8293 -0.2194,5.6531 -0.4782,8.4712 -0.6075,0.4838 -1.1925,0.9845 -1.8112,1.44 -0.6413,-0.8943 -1.2319,-2.1881 -2.5706,-1.9462 -8.8088,-0.2137 -17.6175,-0.2081 -26.4263,-0.2419 -1.7606,-0.3038 -1.6482,2.1376 -3.2624,2.4019 -0.7257,0.5232 -1.4064,1.1025 -2.0982,1.6594 -0.2588,3.5438 0.0449,7.1269 -0.5401,10.6368 -0.4893,0.3432 -0.9843,0.6694 -1.4905,0.9731 -1.2094,-0.9225 -2.3626,-1.9012 -3.4763,-2.9249 -0.225,0.0281 -0.6694,0.0786 -0.8944,0.1069 -0.3544,-0.7651 -0.8493,-1.9801 -1.9181,-1.5862 -3.0769,0.7143 -6.2944,1.7043 -9.3769,0.4048 -0.5794,0.7032 -1.1024,1.4569 -1.3163,2.357 -1.3667,-0.0732 -2.7168,-0.2475 -4.0611,-0.4388 -0.006,0.0618 -0.0169,0.18 -0.0227,0.2418 2.7282,0.4951 5.3607,1.6539 8.1788,1.4907 3.0264,-0.0843 6.0581,-0.0282 9.0845,-0.1744 1.9518,1.7887 3.7012,3.8139 5.8894,5.3269 -0.0508,4.6688 -0.1632,9.3488 -0.6807,13.9894 z" />
    <path
       id="path38"
       style="fill:#ada3a1;fill-rule:evenodd"
       d="m 567.748,7.615 c 20.9251,-0.0167 41.8501,-0.1012 62.7807,-0.1068 1.08,-0.0281 2.2894,0.1631 3.0994,0.9562 0.4162,1.1701 0.5063,2.4582 1.0969,3.5662 1.1137,1.8563 2.6325,3.437 3.7349,5.3044 0.0957,1.9407 0.2532,3.9488 -0.1124,5.8725 -0.9226,-0.883 -1.8169,-1.7943 -2.6944,-2.7168 -6.0244,-0.0731 -12.0601,-0.0788 -18.0788,0.0676 -0.0449,0.3149 -0.135,0.9393 -0.18,1.2486 -1.2655,-1.9856 -0.3262,-4.3987 -1.2488,-6.4575 -1.215,-0.0619 -2.4356,-0.073 -3.6281,-0.225 -1.6031,-0.8325 -2.0306,-2.9418 -3.6844,-3.7237 -0.8549,-0.3374 -1.1981,-1.1926 -1.6142,-1.9238 -0.3432,0.8494 -0.6075,1.7213 -0.7989,2.61 2.6269,0.3714 4.3932,2.5762 5.2256,4.9557 0.9956,0.0338 2.0588,-0.0113 2.9138,0.6244 -0.0563,0.9787 -0.0788,1.9631 -0.0394,2.9474 -4.2187,-0.118 -8.4487,-0.045 -12.6618,0.0957 -1.395,-0.2081 -1.3556,1.4738 -1.8619,2.3343 -0.3375,0.0169 -1.0125,0.0451 -1.3556,0.0563 0.9056,3.8925 1.7831,7.7907 2.6325,11.6944 0.1631,1.665 1.6594,2.6662 2.8406,3.6506 5.0288,0.1743 10.0687,0.1912 15.0975,0.3881 0.3318,0.1745 0.99,0.5287 1.3163,0.7088 0.8663,-0.8832 2.1374,-0.6187 3.2569,-0.6638 5.6587,0.0732 11.3231,-0.0955 16.9762,0.0901 0.6188,0.9224 1.3218,1.7942 1.8788,2.7618 0.3881,2.1262 0.3767,4.3088 0.5118,6.4631 0.9956,1.5018 2.4694,2.7844 3.0825,4.4888 -0.1687,1.5468 0.1744,3.3074 -0.6187,4.708 -0.7988,-1.2037 -1.3839,-3.2849 -3.2175,-3.0206 -6.6489,0.1237 -13.292,0.4219 -19.9407,0.4219 -0.2757,-1.2655 -0.7032,-2.4863 -0.9281,-3.7574 0.1744,-2.2669 0.8493,-4.4607 0.99,-6.7332 -0.1687,-0.8212 -0.7199,-1.4907 -1.1138,-2.205 -0.2588,3.4481 -1.2488,6.7837 -2.1037,10.1194 -0.2306,1.4062 -1.5413,2.1768 -2.4806,3.0994 -2.2669,-0.5343 -4.6519,-0.3207 -6.9469,-0.1126 -0.4837,0.5062 -1.8282,1.6538 -0.6582,2.0757 2.07,-0.1351 4.1119,-0.585 6.2045,-0.5794 -2.6776,0.9394 -5.6081,0.6413 -8.387,1.0912 1.0576,6.002 2.5088,11.9364 3.3019,17.9831 0.7314,4.1063 1.0745,8.28 1.9744,12.3469 -9.1012,-0.1856 -18.2025,0.0281 -27.2981,-0.0956 -1.4794,-0.0056 -3.0319,-0.1576 -4.3818,0.5625 l -0.1913,0.0788 C 576.1969,67.2906 571.6856,45.9607 567.3824,24.6025 567.2811,18.9439 567.495,13.2739 567.748,7.615 Z" />
    <path
       id="path40"
       style="fill:#ada3a1;fill-rule:evenodd"
       d="m 412.1944,7.4239 c 4.1624,-0.1576 8.3305,0.1856 12.4987,0.2138 0.6974,1.6986 2.1037,2.8461 3.4538,4.0162 0.3487,4.6744 0.7255,9.3712 0.9393,14.0681 -0.2419,5.2818 -1.7326,10.648 -0.1237,15.868 1.0069,0.8269 2.0025,1.6932 3.1218,2.3795 2.0982,-0.0282 4.0051,-1.3387 6.1144,-1.5076 1.4794,0.7201 2.8688,1.62 4.3424,2.3626 -1.0405,-1.3951 -2.1768,-2.7113 -3.268,-4.0614 -3.1668,0.1801 -6.4295,1.5132 -9.4726,0.0507 1.4738,-9.8212 0.332,-19.7437 0.006,-29.6043 -1.3105,-0.7989 -2.2611,-2.0532 -1.9405,-3.6675 16.4194,-0.0507 32.8387,-0.0113 49.2525,-0.0225 1.5018,3.0881 3.4425,6.2437 3.285,9.7988 0.0787,2.4411 -0.045,4.8936 0.18,7.3294 0.4782,2.3624 1.6707,4.4886 2.6663,6.6542 0.1406,2.3907 0,4.7868 0.0449,7.1832 -3.195,0.6411 -6.8794,-0.2813 -9.5962,1.9013 -0.6638,1.1306 -0.5681,2.6211 -1.3726,3.645 -2.205,0.2025 -4.4156,-0.0619 -6.6149,0.0899 -1.0518,0.3825 -1.9294,1.0857 -2.8238,1.7268 3.3075,-0.7873 6.3113,1.3332 9.6076,0.9057 3.5831,-0.0563 7.1605,-0.0788 10.7492,-0.1124 0.1464,1.6425 0.0957,3.3018 0.2701,4.9443 0.495,1.7549 1.5976,3.2794 2.0756,5.0456 0.2757,7.29 0.1744,14.5969 0.5738,21.8812 0.6018,1.8169 1.7213,3.4144 2.3962,5.2031 0.2419,1.5806 -0.0169,3.195 0.0675,4.7925 l -0.0844,-0.0224 c -1.9124,-0.6189 -3.9318,-0.4388 -5.9005,-0.4388 -3.3132,0.0057 -6.6207,0.0113 -9.9225,-0.0169 0.1687,-1.1868 -0.5681,-2.0418 -1.4626,-2.6831 -0.0844,0.9282 -0.1632,1.8506 -0.2644,2.7787 -3.4481,-0.1518 -6.8962,-0.0394 -10.3387,-0.1012 -1.1026,-0.0506 -2.1825,0.1688 -3.2175,0.5062 l -0.0169,0.0056 c -0.2757,-2.2049 -0.0394,-4.5955 -1.1587,-6.598 -0.7988,-1.8057 -2.2106,-3.5043 -1.98,-5.597 0.0956,-3.3693 0.0224,-6.7499 0.1462,-10.1249 -0.0731,-0.9618 0.8551,-1.7943 1.7775,-1.8225 5.6306,-0.4556 11.3006,-0.7593 16.8582,-1.8112 1.0855,-0.1126 2.1824,-0.1182 3.2794,-0.1576 -1.9126,-0.433 -3.8813,-0.0562 -5.7826,-0.1293 -0.7368,-0.4951 -1.3725,-1.2319 -2.2893,-1.3725 -2.6101,-0.4557 -5.2931,-0.7706 -7.92,-0.3207 -0.0957,0.4782 -0.2813,1.4344 -0.377,1.9125 -1.7775,0.0057 -3.5493,-0.0619 -5.3155,-0.1687 0.0225,-2.0475 -1.2826,-3.718 -3.0039,-4.6744 -2.6042,-0.0561 -5.3774,-0.4725 -7.8861,0.0057 0.0787,4.095 -0.0675,8.2743 1.4906,12.15 -4.5788,0.6861 -9.2137,0.8268 -13.8376,0.8888 -1.8955,-0.1239 -3.4311,1.1362 -4.9837,2.0137 3.9376,-0.0507 7.8301,-0.8214 11.7675,-0.8156 2.7282,0.3712 5.4225,0.9449 8.145,1.3837 0.1238,5.1357 0.1294,10.2768 0.1463,15.4069 -0.0845,0.1462 -0.2643,0.4443 -0.3544,0.5906 0.0169,-0.3038 0.0563,-0.9169 0.0732,-1.2206 -8.3982,-0.1969 -16.8075,0.2419 -25.2001,-0.1745 0.5681,-0.5118 1.1137,-1.0518 1.6482,-1.6086 0.99,-1.2039 2.3343,-2.2894 2.8068,-3.8026 -0.0337,-3.0206 -0.7482,-6.0075 -0.4838,-9.045 -1.9687,2.9251 -1.5243,6.5194 -1.7155,9.855 -0.7481,0.3207 -1.5019,0.6356 -2.2388,0.9618 -1.9125,0.6133 -2.2781,2.7901 -3.2456,4.2976 -0.9451,-0.315 -1.9238,-0.5288 -2.9025,-0.6751 -0.006,-8.7075 -0.006,-17.4149 0.006,-26.1224 0.0563,-3.2062 -2.6943,-5.7655 -2.4582,-9.0055 0.0113,-4.3426 -0.0281,-8.6851 -0.2192,-13.0163 0.3204,-1.5357 1.063,-2.9756 1.9011,-4.2919 1.1195,-0.9506 2.4693,-1.6144 3.8025,-2.2106 1.5018,-0.1969 3.0206,0.0056 4.5393,-0.107 1.5639,-0.3149 2.8913,-1.288 4.382,-1.8336 -0.2532,-0.0844 -0.7537,-0.2475 -1.0069,-0.3263 -1.5919,-1.6818 -4.005,-1.7212 -6.1593,-1.6707 -1.0633,-0.0336 -1.4963,1.1082 -2.0644,1.7831 -1.7551,-0.0505 -3.5044,-0.1462 -5.2537,-0.1911 -0.3431,-7.8132 -0.0282,-15.6432 -0.1575,-23.4675 z m 29.053,16.1661 v 0 c 0.1012,1.4794 0.0507,2.9757 0.2138,4.455 0.63,1.0857 1.7381,1.7889 2.6212,2.6608 -0.0281,2.6325 0,5.265 0.006,7.8975 2.4637,0.3318 4.9668,0.073 7.4418,0.3373 0.0676,-4.4999 -0.3262,-8.9943 -0.2588,-13.4943 -0.7706,-0.6075 -1.4175,-1.4568 -2.368,-1.7662 -2.5538,-0.0901 -5.1076,-0.1406 -7.6557,-0.0901 z m 3.8419,30.96 v 0 c 0.006,0.8325 0.0169,1.665 0.0338,2.5032 2.3737,0.3937 4.7925,0.3993 7.1943,0.2306 -0.5625,-0.9393 -0.9787,-2.0588 -1.9293,-2.6719 -1.7437,-0.3431 -3.5382,-0.073 -5.2988,-0.0619 z m -9.6412,14.0626 v 0 c -1.5751,0.5793 -4.05,-0.0788 -4.8545,1.6761 4.1119,0.0676 8.3194,0.405 12.3525,-0.6242 -1.1193,-3.4482 -5.0287,-1.4457 -7.498,-1.0519 z" />
    <path
       id="path42"
       style="fill:#ada3a1;fill-rule:evenodd"
       d="m 488.5931,7.6602 c 22.8038,0.1573 45.6075,0.208 68.3999,0.5399 3.4538,19.3612 7.0257,38.6999 10.4851,58.0611 0.3318,2.1038 1.2205,4.3145 0.1687,6.3676 -1.1812,0.1182 -2.34,0.3093 -3.51,0.4162 -1.3443,-0.2081 -2.0982,-1.6199 -3.3468,-2.0081 -3.9207,-0.3768 -7.8695,-0.3712 -11.79,-0.7368 0.9899,-0.0563 1.9912,-0.152 2.9924,-0.2475 -0.8043,-1.7775 -3.105,-1.5357 -4.7194,-1.6932 -1.9068,0.2926 -4.455,0.4725 -5.2481,2.5651 -0.5343,0.6355 -1.3612,0.9449 -2.0306,1.4119 2.0644,-0.2307 4.05,-1.1251 6.1594,-0.872 4.3088,0.3938 8.6512,0.5062 12.9319,1.1869 0.3318,0.6974 0.3768,1.6594 1.0913,2.1207 1.7718,0.3881 3.7069,0.0055 5.3999,0.7423 1.322,0.9564 2.8406,1.8001 3.8419,3.0994 0.3487,3.195 0.1969,6.435 0.7819,9.6076 -9.1182,-0.3881 -18.2643,-0.0675 -27.3882,-0.1856 -1.3275,-0.0619 -2.6494,0.0788 -3.898,0.5062 -0.5625,0.0394 -0.3883,-1.1306 -0.4613,-1.5187 -0.1126,-5.5687 0.18,-11.16 -0.36,-16.7062 -0.6919,-1.7495 -2.025,-3.1838 -2.5707,-4.9951 -0.3262,-0.8719 -0.4499,-1.8619 -1.0405,-2.6044 -2.1545,-0.63 -4.427,-0.5737 -6.6376,-0.8325 -0.2868,1.0913 -0.5681,2.1881 -0.9787,3.2457 -1.1982,0.6075 -1.3669,2.1543 -0.9957,3.3244 1.5581,6.6656 2.8182,13.3986 4.4607,20.0419 l -0.2419,-0.0619 c -0.9844,-0.2757 -1.9969,-0.4501 -3.015,-0.4163 -7.8806,0.1181 -15.7613,-0.0056 -23.6419,0.045 -2.0137,0.0562 -4.1119,-0.2982 -6.0356,0.4612 L 497.16,88.5982 C 496.7212,81.7019 496.4849,74.8 496.0687,67.8981 493.8188,47.7945 491.0512,27.747 488.5931,7.6602 Z m 20.1037,13.2243 v 0 c -0.0619,0.3712 -0.18,1.1024 -0.2362,1.4681 1.9238,0.1631 3.8587,0.3093 5.76,0.6975 -2.1319,0.0337 -4.2637,-0.0451 -6.39,0.0281 -0.6132,2.6663 0.5513,5.1862 1.3893,7.6556 3.2963,0.45 6.7388,0.0844 10.0912,0.2025 0.1576,-0.1406 0.4613,-0.4275 0.6133,-0.5681 0.1742,-2.4469 0.3037,-4.9837 -0.8832,-7.2225 -0.3543,-0.0056 -1.0575,-0.0112 -1.4119,-0.0168 -0.4387,-0.7819 -0.8043,-1.6032 -1.3724,-2.2951 -2.5032,-0.2813 -5.04,0.2194 -7.5601,0.0507 z m 24.5419,0.3262 v 0 c -0.8381,0.3826 -0.5399,1.5638 -0.7931,2.2894 h -0.4613 c -1.1868,2.3005 -1.1418,4.933 -1.2375,7.4531 4.1457,-0.0732 8.2969,-0.1406 12.4482,-0.2699 -0.2419,-2.4358 -0.6694,-4.8433 -0.9787,-7.262 -1.727,0.0394 -3.4483,-0.0055 -5.1695,-0.0169 1.5469,-0.2305 3.1107,-0.3543 4.68,-0.4724 -0.5119,-0.8044 -1.1194,-1.5412 -1.7887,-2.2106 -2.222,0.298 -4.4831,0.1462 -6.6994,0.4893 z M 520.543,31.5663 v 0 c -0.0111,1.6932 -0.006,3.3806 0.0451,5.0738 -1.7438,0.4725 -3.735,0.2194 -5.3606,0.8606 -0.1462,2.2951 -0.0282,4.6012 -0.0788,6.9019 2.2781,1.6086 2.5426,4.3481 2.7507,6.9074 1.4793,0.0788 2.9643,0.1182 4.4605,0.1351 0.1407,-1.9238 0.3826,-3.8306 0.4725,-5.7544 2.7337,-0.3825 5.6813,-0.9506 8.2913,0.2644 -2.2838,-0.4726 -4.6294,-0.3262 -6.885,0.1968 1.0463,1.3613 3.0093,0.4782 4.4719,0.8044 1.513,-0.1687 3.5605,0.9562 4.6969,-0.4275 0.8661,0.1687 1.6986,0.4838 2.4581,0.9451 0.1125,1.5074 0.36,2.9981 0.5512,4.4943 1.6144,0.0281 3.24,-0.0393 4.86,-0.18 0.0563,-3.4707 0.0676,-6.9468 0.135,-10.4176 -1.4119,-1.5299 -2.9925,-3.0206 -3.4763,-5.1355 -1.7268,0.1349 -3.4536,0.1743 -5.1749,0.0955 -0.7481,-1.7662 -1.5694,-3.493 -2.3345,-5.2481 -3.3074,-0.0055 -6.5924,0.3263 -9.8831,0.4838 z" />
    <path
       id="path44"
       style="fill:#ada3a1;fill-rule:evenodd"
       d="m 643.6236,7.6995 c 16.4477,-0.1575 32.8896,0.0619 49.337,0.0787 6.1818,-0.1013 12.3581,0.0169 18.5399,0.062 0.3207,1.8617 1.0913,3.5437 2.8125,4.4886 0.3714,2.3737 -0.0169,4.8489 0.0114,7.2564 0.2136,1.3723 -1.1587,2.053 -2.025,2.8292 -0.0225,-0.4499 -0.0732,-1.3499 -0.1013,-1.8056 -3.5831,-0.2924 -7.1831,-0.1462 -10.7663,-0.1518 -1.4738,-0.1969 -2.3793,1.0575 -3.2287,2.0193 -1.4907,-0.9393 -2.0588,-2.6494 -2.9587,-4.0669 -0.6863,-1.1474 -1.5414,-2.1824 -2.132,-3.3805 -0.2194,-2.0813 0.2644,-4.1963 -0.1237,-6.2663 l -0.8944,-0.5512 c 0.3545,3.195 -0.9844,6.2268 -1.1869,9.388 1.2488,0.9001 3.2233,1.727 2.7845,3.6394 -0.3657,1.9462 0.208,3.6338 1.6874,4.9332 7.3463,20.6043 14.1975,41.4112 21.5776,62.0099 -8.7358,-0.3151 -17.4882,-0.0169 -26.2294,-0.1406 -1.62,0.028 -3.3301,-0.2419 -4.8319,0.5062 -0.0674,-0.0843 -0.2138,-0.2474 -0.2868,-0.3262 -1.5638,-1.665 -1.6145,-4.0669 -2.3232,-6.1257 -1.08,-3.5774 -1.89,-7.2224 -2.4413,-10.9181 1.1081,-1.0406 1.9406,-2.5762 3.4763,-3.0318 2.3062,-0.585 4.635,-1.9125 7.065,-1.17 3.9263,0.9282 7.7738,-1.17 11.7056,-0.855 1.1251,0.2812 2.2106,0.72 3.3074,1.1081 -1.0349,-0.7987 -1.9518,-1.8844 -3.2286,-2.2387 -2.9701,0.1293 -5.9232,0.5906 -8.8931,0.5962 -0.1295,-0.3094 -0.3825,-0.9338 -0.5063,-1.2431 -4.2075,-1.035 -8.6456,-2.1038 -12.9713,-1.3725 -0.0336,0.405 -0.1013,1.2094 -0.1349,1.6087 0.2869,0.0731 0.8661,0.2082 1.1531,0.2756 -0.7594,0.0844 -1.5414,0.4782 -2.2782,0.2025 -0.8549,-0.9562 -1.4288,-2.1206 -1.9912,-3.2624 -3.7237,-11.34 -6.9862,-22.8487 -10.5693,-34.2394 -1.2827,-3.8419 -1.3895,-7.9819 -0.5964,-11.9306 -0.7931,0.855 -1.5693,1.7268 -2.3063,2.6325 0.2308,0.9618 0.7426,2.0025 0.1689,2.9531 -4.635,-0.8607 -9.3769,-0.8776 -14.0682,-1.1362 -1.3218,-0.0732 -1.98,1.2544 -2.4525,2.2612 -1.603,-2.1993 -2.6155,-4.7644 -3.78,-7.2057 -0.4555,-2.4356 -0.1912,-4.9611 -0.3207,-7.4305 z" />
    <path
       id="path46"
       style="fill:#ada3a1;fill-rule:evenodd"
       d="m 29.6156,8.5939 c 8.7468,0.0225 17.4993,-0.1689 26.2518,-0.0394 1.1306,1.8955 0.1913,3.9657 -0.1632,5.9344 -0.18,1.8843 -1.7662,3.088 -2.6267,4.6519 -0.2532,2.0475 -0.0507,4.123 -0.1126,6.1762 -1.4119,0.1349 -2.8181,0.2811 -4.2187,0.5005 -0.9675,-2.1318 -3.5381,-2.2217 -5.4957,-2.8292 -2.88,-0.8888 -5.9119,-1.3445 -8.9156,-0.9282 -1.1024,0.4219 -1.9631,1.2825 -2.8968,1.9801 0.4557,0.0899 1.3669,0.2643 1.8225,0.3543 -2.3175,0.7594 -4.6406,-0.4106 -6.9413,-0.675 -1.26,-0.0169 -2.0756,-1.2263 -2.4356,-2.2838 2.7393,-3.8755 3.673,-8.6231 5.7319,-12.8418 z" />
    <path
       id="path48"
       style="fill:#ada3a1;fill-rule:evenodd"
       d="m 95.2763,8.9595 c 2.3568,-0.3938 4.7474,-0.2307 7.1267,-0.2644 7.065,0.0394 14.1358,-0.1012 21.2006,-0.0843 -0.0674,2.7787 0.2588,5.6531 -0.658,8.3305 -2.2894,7.3406 -4.3763,14.7487 -6.6938,22.0725 -1.26,1.2882 -2.5031,2.6719 -3.9993,3.6788 -2.0757,0.1013 -4.1569,-0.0451 -6.2326,0.0788 -0.4499,-0.6413 -0.8943,-1.2826 -1.3387,-1.9239 -1.7157,-0.118 -3.4369,-0.2811 -5.04,-0.928 0.0563,-4.9557 0.028,-9.9169 0.1462,-14.8726 -0.6974,-1.1925 -1.485,-2.3287 -2.3681,-3.3918 -1.6594,-0.0057 -3.3188,-0.0507 -4.978,-0.107 -0.0058,-0.9731 -0.197,-1.9798 0.0618,-2.9305 0.523,-0.8607 1.2487,-1.575 1.7324,-2.4582 0.5007,-2.3737 0.6582,-4.8037 1.0408,-7.1999 z" />
    <path
       id="path50"
       style="fill:#ada3a1;fill-rule:evenodd"
       d="m 134.2068,11.142 c 0.1013,-1.5414 1.5301,-2.5538 3.0206,-2.3906 8.2744,-0.0169 16.5431,0.3038 24.8287,0.2193 0.2588,1.2488 0.8045,2.5145 0.5063,3.8081 -0.6412,4.05 -1.3218,8.0944 -2.0025,12.1388 -0.8212,0.7257 -1.6312,1.4681 -2.4412,2.205 -1.8113,0.0169 -3.6338,-0.1237 -5.4394,0.0619 -1.8056,0.63 -3.4762,1.6087 -5.2594,2.3005 1.8676,-0.0955 3.7181,-0.4161 5.5856,-0.4949 1.8619,0.1856 3.6732,0.7537 5.5407,0.9618 -0.045,0.8157 -0.0732,1.6369 -0.2138,2.4413 -3.7012,18.405 -7.3012,36.8269 -10.9856,55.2375 -0.1687,0.8044 -0.3769,1.5975 -0.6244,2.385 l -0.225,-0.1463 c -3.2455,-0.3488 -6.5474,-0.3207 -9.7931,-0.0956 -0.2081,0.1294 -0.6187,0.3937 -0.8269,0.523 -0.7874,-0.9562 -1.7549,-1.7549 -2.4806,-2.7562 -0.3206,-0.9562 -0.5118,-1.9518 -0.7425,-2.9362 -0.4725,0.9337 -1.0462,1.8507 -1.1926,2.9081 -0.0899,0.7313 -0.1349,1.4681 -0.1856,2.2051 -4.8093,-0.0901 -9.6187,-0.1351 -14.428,0.0055 -0.0507,0.3545 -0.152,1.0632 -0.1969,1.4175 -0.5007,-2.0474 -0.9618,-4.2187 -0.5007,-6.3168 6.0131,-24.5644 12.0376,-49.1174 18.0563,-73.6818 z" />
    <path
       id="path52"
       style="fill:#ada3a1;fill-rule:evenodd"
       d="m 171.3994,11.1251 c 1.1981,-1.0349 2.3174,-2.6213 4.1118,-2.4019 7.4981,0 15.0019,-0.0957 22.5056,-0.1012 1.1869,-0.3094 1.8056,0.9562 1.7831,1.9462 0.0957,3.5382 -0.1969,7.065 -0.2137,10.5976 -1.8676,1.8786 -4.6968,1.3948 -7.0988,1.5524 3.9995,1.0857 8.1056,1.8843 12.2738,1.7043 1.1756,-0.2474 2.6494,0.5626 2.5425,1.8901 -0.0225,2.8969 0.1293,5.8107 -0.0732,8.7075 -1.0743,1.5357 -2.3737,3.0262 -2.2724,5.0456 2.5593,-0.135 5.1019,-0.405 7.6612,-0.5231 0.9731,-0.5906 1.8338,-1.3613 2.5819,-2.2162 1.1701,-3.6732 1.9294,-7.47 3.0206,-11.1657 0.0619,-0.8156 0.8381,-0.8888 1.4794,-0.9169 0.4669,0.6919 0.8999,1.4289 1.5299,1.9912 2.2163,0.1801 4.5282,-0.5343 6.6713,0.3207 2.295,0.8888 4.7926,0.54 7.1944,0.6638 3.42,-0.0675 6.7781,0.6974 10.1926,0.6974 -0.5063,-0.1349 -1.0183,-0.2586 -1.5188,-0.3881 l 0.0112,-0.1575 c 0.0169,-0.2193 0.0507,-0.6581 0.0674,-0.8775 -2.1036,-1.4849 -4.5393,-2.5256 -7.0537,-3.0655 -1.3892,0.0955 -2.5931,0.9112 -3.4987,1.9237 1.7494,0.1406 3.5325,0.0337 5.2594,0.4275 -2.3344,-0.0056 -4.68,0.1349 -6.9919,-0.2081 -0.3881,-0.7819 -0.7819,-1.5581 -1.1756,-2.3345 -2.205,-0.0111 -4.4044,0.0225 -6.6037,0.1126 -1.5919,-1.6876 -3.2119,-3.3468 -4.6913,-5.1301 -1.5357,-1.5693 -0.765,-3.9094 -0.9506,-5.8668 -0.3376,-1.9462 1.648,-2.9362 2.6325,-4.2918 4.7756,-0.2757 9.5682,-0.0169 14.3494,-0.1407 3.7518,-0.2699 7.5206,-0.1856 11.2781,-0.1294 0.1574,0.1294 0.4669,0.3938 0.6243,0.5288 0.0394,6.5924 0.0732,13.1962 -0.0225,19.7943 -1.3724,12.5494 -2.4525,25.1325 -4.2018,37.6425 -0.8888,7.8132 -2.0869,15.5869 -2.8688,23.4112 -2.6944,-1.0574 -5.6531,-0.36 -8.46,-0.4499 0.3319,-2.7282 -0.8944,-5.2201 -1.7494,-7.7233 0.0675,2.5932 0.5288,5.2764 -0.405,7.7738 -7.1268,-0.2699 -14.2706,-0.1012 -21.4031,-0.073 0.006,-1.2375 -0.1462,-2.4919 0.0563,-3.7238 0.6974,-1.1026 1.9462,-1.98 1.9124,-3.4144 0.1969,-3.1951 0.1914,-6.3899 0.332,-9.585 -0.0563,-1.2319 0.9449,-2.1206 1.5412,-3.0937 1.2375,-0.1463 2.6606,-0.8719 3.825,-0.1013 1.2544,0.585 2.3793,1.5695 3.7744,1.8 2.2613,-0.2025 4.4605,-1.1869 6.7332,-1.0632 1.6424,0.6469 3.5155,0.9845 4.9612,1.9689 0.5849,3.5044 0.5343,7.0931 0.9899,10.6199 0.8213,-3.1443 1.2094,-6.3843 1.6987,-9.5905 -0.6186,-0.9958 -1.2092,-1.9969 -1.8,-3.0039 -0.5456,-0.1518 -1.0799,-0.3037 -1.6142,-0.4612 -0.0507,-1.4737 -1.6594,-2.2106 -2.7226,-2.9363 -1.71,-0.2924 -3.4819,-0.298 -5.1974,-0.073 -0.7314,0.5118 -1.2938,1.2037 -1.8957,1.8505 0.2588,0.0507 0.7875,0.152 1.0463,0.2081 -1.1362,0.1689 -2.3512,0.6075 -3.4594,0.152 -2.7057,-1.1307 -5.3718,-2.4919 -8.252,-3.0938 -2.323,-0.3431 -5.2256,1.3276 -7.0875,-0.4725 -0.4386,-3.9994 -0.4837,-8.0325 -0.6299,-12.0487 1.62,-0.4782 3.42,-0.36 4.95,-1.1082 -3.9487,-1.2094 -8.0663,-1.9687 -12.2118,-1.7942 -0.0676,5.0006 -1.6258,9.7705 -2.762,14.5855 -0.1969,1.0744 -1.2206,1.6537 -1.9068,2.3962 -2.9138,-0.5399 -5.8276,-1.1306 -8.7807,-1.3499 -1.1981,-0.135 -2.4525,-0.1014 -3.5494,-0.6638 0.6189,-1.0349 0.2926,-2.2726 -0.3769,-3.1894 -2.4861,-0.6863 -5.0906,-0.8944 -7.6612,-1.0125 -1.5975,-0.0563 -2.6269,1.3331 -3.5549,2.4244 -1.772,0.9787 -3.9376,-0.2419 -5.6644,-0.9731 3.5887,-17.2799 7.2056,-34.5487 10.7888,-51.8231 z" />
    <path
       id="path54"
       style="fill:#ada3a1;fill-rule:evenodd"
       d="m 257.4056,12.2558 c -0.2588,-1.98 1.8505,-3.3357 3.5718,-3.4988 21.4144,-0.0056 42.8287,-0.0225 64.2432,0.0056 0.1406,0.135 0.4219,0.405 0.5625,0.54 -0.0282,3.9657 -0.1969,7.9369 -0.3206,11.9081 -0.4838,1.4738 -1.7213,2.6212 -2.7789,3.7238 -0.7368,-1.035 -0.9112,-3.2513 -2.6098,-2.9814 -10.4457,-0.0055 -20.8969,0.1295 -31.3482,0.0563 -0.2812,0.6976 -0.5625,1.4006 -0.8326,2.1038 2.1431,0.0225 4.2976,0.0563 6.4294,0.3262 -2.4918,0.4332 -5.0119,0.1631 -7.5149,0.0901 -0.5176,0.8606 -0.405,1.9631 -0.5737,2.9305 -0.0732,4.2189 -1.8283,8.1169 -2.7001,12.1894 5.8106,0.4726 11.6662,0.2419 17.4657,0.6357 2.3568,2.1038 0.7199,5.338 0.9506,8.0157 0.5624,0.7368 1.1193,1.4793 1.6874,2.2161 -0.6582,-2.8688 0.6975,-5.5856 1.5244,-8.2631 1.1813,-0.99 2.61,-1.9181 4.23,-1.755 4.6125,0.1012 9.2306,-0.2475 13.8488,0.0057 -0.1856,5.0456 -0.1745,10.0968 -0.1856,15.1481 -0.8438,0.8437 -1.6314,1.7774 -2.6381,2.4412 -0.8438,0.1969 -1.7213,0.0901 -2.5706,0.1126 -0.1801,-0.7313 -0.3489,-1.4627 -0.5232,-2.1882 -4.4381,-0.135 -8.8819,-0.0282 -13.32,-0.0393 h -0.1632 c -0.1125,-0.3826 -0.3375,-1.1532 -0.4499,-1.5357 -0.2025,0.5118 -0.4108,1.0237 -0.6019,1.5357 -4.9557,0.0169 -9.9056,-0.107 -14.8557,0.028 -1.3837,-0.1687 -1.3105,1.5412 -1.8056,2.402 -0.6638,0.0224 -1.3219,0.0505 -1.9801,0.0787 -0.613,5.158 -1.4175,10.2937 -2.6943,15.3337 0.6582,0.27 1.3444,0.405 2.0588,0.3937 10.3106,-0.0394 20.6212,0.0113 30.9319,-0.0281 0.9055,-0.0224 1.8056,0.1124 2.7,0.2756 -0.2363,0.8945 -0.5176,1.7775 -0.8607,2.6382 -2.8687,-0.0394 -5.7319,-0.0732 -8.6005,-0.0225 -1.0857,-0.0845 -1.3614,1.2037 -1.6763,1.9856 3.5831,-1.4737 7.5768,-0.1012 11.2893,-0.4726 1.3331,-1.1024 1.8057,-2.9643 3.0826,-4.1343 0.8325,-0.0337 1.9069,-0.4556 2.6043,0.1295 0.2194,5.0511 -0.045,10.1192 0.3037,15.1705 -6.075,-0.1125 -12.178,-0.2812 -18.2475,0.0675 -1.2488,-3.2006 -0.433,-6.7275 -0.4443,-10.0631 -0.9732,3.2513 -1.9576,6.5362 -2.1826,9.9394 -9.1181,-0.1463 -18.2417,0.0169 -27.36,-0.0844 -1.2937,0.0506 -2.7449,-0.2194 -3.8137,0.6919 -1.2374,-2.6719 -2.7281,-5.2143 -4.0838,-7.8243 -0.0899,-4.1907 0.6751,-8.3363 0.7931,-12.5101 l -0.3093,-0.1744 c -0.2025,-0.1068 -0.6019,-0.3149 -0.7987,-0.4219 l -0.107,-0.2081 c -0.2755,-0.5456 -0.5512,-1.0968 -0.8211,-1.6481 -2.3682,-0.2474 -4.7644,-0.6019 -7.1382,-0.3037 -0.9956,0.3374 -1.6537,1.2206 -2.3849,1.918 2.8181,0.3489 5.6474,-0.1518 8.4768,-0.0394 -2.5876,0.2419 -5.1694,0.6582 -7.7681,0.6075 -1.6593,-0.2924 -3.2962,-0.7312 -4.9725,-0.9224 0.7143,-12.0263 2.025,-24.0187 2.9418,-36.0281 6.7726,-0.72 13.5001,-1.8563 20.2951,-2.4131 0.006,-0.0731 0.0112,-0.2249 0.0168,-0.2981 -2.3793,-0.1687 -4.6912,-0.8044 -7.0649,-1.035 -1.7664,0.045 -3.3526,0.9956 -5.0738,1.3105 -1.9518,-0.1631 -3.8531,-0.6918 -5.7713,-1.0575 -1.7662,-5.563 0.006,-11.3342 -0.0618,-17.0042 z" />
    <path
       id="path56"
       style="fill:#ada3a1;fill-rule:evenodd"
       d="m 79.453,32.022 c 1.4289,-2.5537 2.987,-5.0344 4.32,-7.6444 4.4776,0.0338 8.9551,0.0507 13.4326,0.2138 0.0336,4.1287 -0.0113,8.2573 0.0225,12.3919 -3.5269,0.7481 -7.6387,0.6244 -10.3164,3.4311 2.717,0.2813 5.4451,0.0675 8.1563,-0.1293 -5.3324,1.1756 -10.7774,0.5624 -16.1718,0.3881 -0.5681,-0.3938 -1.0407,-0.9001 -1.5412,-1.3725 -0.107,1.0632 -0.1969,2.1262 -0.2757,3.1894 5.4395,-0.1294 10.8787,-0.6751 16.3182,-0.2812 3.4705,0.2699 6.9693,0.0674 10.4174,0.6186 0.4557,0.9113 0.9168,1.8225 1.3781,2.7338 3.1445,0.1462 6.2833,-0.0844 9.4276,-0.0112 0.5906,0.5063 1.1868,1.0125 1.7887,1.513 -3.2118,13.7081 -6.6656,27.3601 -9.9394,41.0569 -0.1182,0.8944 -0.5906,1.6425 -1.1756,2.3007 l -0.225,-0.1125 c -0.8212,-0.5176 -1.7606,-0.7369 -2.7224,-0.6807 C 94.1118,89.6782 85.8768,89.65 77.6419,89.6163 76.6405,89.5825 75.6505,89.74 74.79,90.2857 l -0.0844,-0.3263 c -0.225,-1.7775 -0.405,-3.5719 -0.2588,-5.3606 2.3119,-8.2912 4.4944,-16.6163 6.7838,-24.9131 1.8843,-0.63 2.8913,-2.3906 3.7574,-4.0388 -3.2118,0.1856 -6.4462,0.1237 -9.6468,0.4557 -0.2925,0.7537 -0.4669,1.5412 -0.7032,2.3118 -0.118,0.0957 -0.3543,0.2757 -0.4724,0.3712 -1.3557,3.9601 -2.6212,7.9594 -3.9263,11.9419 -0.4106,1.3557 -1.1701,2.5651 -1.9801,3.7125 -6.6542,-0.5962 -13.3705,-0.0955 -20.0475,-0.2475 0.0452,0.9057 -0.4217,2.3906 0.8214,2.6832 3.1556,0.5793 6.4068,0.0225 9.6018,0.3881 -3.6,0.2081 -7.2393,0.3263 -10.8168,-0.2025 -0.3487,-0.1181 -0.6919,-0.2419 -1.0294,-0.3769 l 0.838,0.0901 c 0.0676,-2.402 0.3714,-4.7926 0.4557,-7.1945 0.5457,-3.6731 1.592,-7.2562 2.1713,-10.9237 -2.3457,-0.1126 -4.6856,-0.36 -7.0257,-0.5176 -2.025,3.6564 -3.9318,7.3857 -6.0468,10.9802 -1.6144,1.0461 -3.2288,2.2611 -5.0849,2.8181 -2.7282,-0.1126 -5.4564,-0.2982 -8.1901,-0.4388 -0.1407,-2.1432 -0.1351,-4.2975 -0.5401,-6.4126 -0.1124,2.5651 -0.4949,5.1076 -0.5737,7.6783 4.8037,0.6075 9.6301,0.9842 14.4282,1.5973 0,1.6089 -0.0057,3.2175 0,4.8319 -3.5944,0.1407 -7.1887,0.3151 -10.7832,0.405 -1.5187,0.0788 -3.0431,-0.3711 -4.3537,-1.1193 -1.0463,-1.2599 -1.6369,-2.835 -2.5088,-4.2188 0.0169,2.0926 0.2025,4.1794 0.2982,6.2663 4.9443,0.4555 9.9169,0.6244 14.8557,1.1476 -0.1689,1.9518 -0.0507,3.9374 -0.405,5.8667 -0.7539,0.9451 -1.6314,1.7831 -2.4527,2.6719 -0.7873,-0.4838 -1.6986,-0.6525 -2.6098,-0.6018 -8.6683,0.1518 -17.3476,-0.1181 -26.0101,0.118 0.18,0.6694 0.3712,1.3332 0.5737,2.0025 l -0.45,-0.3374 C 2.7224,90.8819 3.2062,89.9481 3.133,89.2676 3.1668,87.2482 3.4537,85.2343 4.2187,83.35 c 3.0262,-8.8143 5.9962,-17.6569 9.0057,-26.4768 0.703,-1.5076 2.1374,-2.4863 3.1387,-3.7856 2.4637,-0.1576 4.9386,-0.0844 7.408,-0.0507 0.0676,3.4482 0.2252,6.8963 0.2194,10.3501 0.9113,-3.2851 1.2432,-6.7107 1.7889,-10.0689 0.2699,-1.2374 -1.1532,-1.7942 -1.8394,-2.5593 -2.0364,-2.1262 -5.1751,-2.0363 -7.8526,-2.5987 1.7945,-5.625 3.2345,-11.3513 4.9106,-17.01 0.4107,-1.6931 1.9181,-2.717 3.0657,-3.9037 1.9293,-0.0114 3.8587,-0.0338 5.7882,-0.1069 2.638,-0.0845 4.9781,-1.6144 7.5655,-1.9012 2.537,0.3656 5.0907,0.585 7.65,0.7875 -1.035,0.5399 -2.2669,0.3881 -3.3918,0.5456 3.358,0.225 6.7331,-0.0507 10.0968,0.0619 2.4582,0.2699 4.5393,-1.2769 6.8287,-1.8563 1.9238,1.1868 2.6832,3.3524 2.537,5.5293 -0.8663,1.0744 -1.8563,2.0644 -2.5257,3.2794 -0.3936,2.0869 -0.1744,4.2356 -0.2249,6.3563 5.7993,0.0505 11.6043,0.18 17.4036,0.253 0.2308,-0.7312 0.4613,-1.4569 0.6919,-2.1823 0.7201,-0.2308 1.4401,-0.4671 2.1656,-0.6921 0.3883,-1.7493 0.1914,-3.6167 0.8044,-5.2986 z M 43.1325,55.9958 v 0 c 0.0281,0.4668 0.0955,1.4061 0.1293,1.8786 2.2725,0.0845 4.5507,0.1181 6.8118,0.4107 1.0744,-0.3825 1.007,-1.9744 1.3614,-2.9082 -2.79,-0.2363 -5.5576,0.1745 -8.3025,0.6189 z" />
    <path
       id="path58"
       style="fill:#ada3a1;fill-rule:evenodd"
       d="m 161.9155,66.2276 c 2.9138,0.0787 5.6026,-1.1587 8.3982,-1.7776 0.2532,0.2588 0.765,0.7707 1.0181,1.0294 -0.0169,0.2306 -0.045,0.6975 -0.0619,0.9282 1.5301,-0.045 3.0657,-0.045 4.6014,0.0169 0.4161,0.703 0.7873,1.4511 1.3387,2.0755 3.4592,0.63 7.6331,-0.3712 10.3556,2.43 0.8324,1.9576 1.8225,3.87 2.4244,5.9175 0.028,3.2006 -0.2588,6.3956 -0.3881,9.5963 0.0336,1.2319 -0.5063,2.3287 -1.142,3.3412 l -0.1406,-0.0056 c -4.0331,-0.0901 -8.1281,-0.4613 -12.1275,0.2306 -1.5524,0.2644 -3.3807,-0.7762 -4.7025,0.3095 l 0.0619,-0.5795 c -5.3213,-0.2025 -10.6482,-0.0562 -15.9693,-0.0956 0.5624,-1.71 1.5299,-3.2794 1.8056,-5.0737 0.9562,-5.3887 1.8843,-10.7776 2.8406,-16.1663 0.135,-0.9169 0.5287,-2.2331 1.6874,-2.1768 z" />
    <path
       id="path60"
       style="fill:#ada3a1;fill-rule:evenodd"
       d="m 252.1293,71.4926 c 4.7306,0.0505 9.4556,-0.152 14.1807,-0.4163 -0.0225,3.6169 -0.4388,7.2169 -0.4219,10.8337 -0.1631,2.7395 0.0563,5.6419 -0.4332,8.2913 -1.0687,-0.3488 -2.1712,-0.6357 -3.3019,-0.5738 -4.0556,0.0787 -8.1112,-0.0731 -12.1612,0.0956 0.045,-5.5237 0.0225,-11.0418 0.006,-16.5656 0.7032,-0.5625 1.4175,-1.1137 2.1319,-1.6649 z" />
    <path
       id="path62"
       style="fill:#29292b;fill-rule:evenodd"
       d="m 677.5481,61.7951 c 0.5624,1.1418 1.1363,2.3062 1.9912,3.2624 0.7368,0.2757 1.5188,-0.1181 2.2782,-0.2025 4.14,-0.8605 8.2743,0.8944 12.4594,0.7313 2.9699,-0.0056 5.923,-0.4669 8.8931,-0.5962 1.2768,0.3543 2.1937,1.44 3.2286,2.2387 -1.0968,-0.3881 -2.1823,-0.8269 -3.3074,-1.1081 -3.9318,-0.315 -7.7793,1.7832 -11.7056,0.855 -2.43,-0.7425 -4.7588,0.585 -7.065,1.17 -0.2756,-1.1419 -1.3612,-0.4443 -2.0475,-0.3431 -2.1432,0.81 -4.5394,1.2375 -6.345,2.7169 -0.6244,1.8111 -0.4612,3.8137 -1.1588,5.6081 -0.9224,0.9562 -2.1768,1.5862 -2.9194,2.7055 -0.4275,1.5357 -0.45,3.1612 -0.8774,4.7026 -0.9113,-0.2194 -1.8225,-0.4501 -2.7169,-0.6807 0.6974,-0.1969 1.4119,-0.3881 2.1318,-0.5794 -0.2418,-1.7381 -0.7425,-3.4481 -0.7312,-5.2087 0.5962,-0.8156 1.485,-1.3612 2.1768,-2.1038 0.9675,-2.4918 -0.0225,-5.6306 1.8676,-7.7849 0.9113,-1.3669 0.9843,-3.0938 1.4681,-4.6294 0.8382,-0.0844 1.7157,-0.1407 2.3794,-0.7537 z" />
    <path
       id="path64"
       style="fill:#29292b;fill-rule:evenodd"
       d="m 267.6374,69.7994 0.3093,0.1744 c -0.118,4.1738 -0.883,8.3194 -0.7931,12.5101 -0.3149,-0.1464 -0.9506,-0.4277 -1.2655,-0.5739 -0.0169,-3.6168 0.3994,-7.2168 0.4219,-10.8337 -4.7251,0.2643 -9.4501,0.4668 -14.1807,0.4163 h -0.2644 c 4.8431,-0.8944 9.7932,-0.5906 14.6926,-0.6244 0.253,1.9912 -0.855,4.4944 0.4893,6.1482 0.3656,-2.3907 0.1293,-4.8376 0.5906,-7.217 z" />
    <path
       id="path66"
       style="fill:#29292b;fill-rule:evenodd"
       d="m 66.1893,77.23 c 0.2025,-0.2588 0.6075,-0.7762 0.81,-1.0405 2.8294,2.4749 4.86,5.6924 7.4475,8.4093 -0.1462,1.7887 0.0338,3.5831 0.2588,5.3606 -0.6582,1.9463 -0.9675,3.9993 -0.9226,6.0526 0.6919,1.6536 2.6381,2.61 2.8969,4.4999 -2.7113,0.18 -5.6644,1.0406 -8.1788,-0.4163 -1.8,-1.5243 -3.9149,-2.7113 -5.3887,-4.5843 -1.4738,-1.9013 -3.6281,-3.0938 -5.113,-4.9726 0.5118,-0.3599 0.9168,-1.0125 1.6031,-1.035 2.2613,-0.1967 4.5224,0.1295 6.7837,0.1801 -1.5975,-1.2431 -3.6,-2.1713 -5.6419,-2.2444 -2.0587,-0.2869 -4.8206,1.17 -6.3056,-0.8043 -1.8899,-2.4413 -3.8137,-4.86 -5.7038,-7.3069 -0.5737,-0.6244 -0.8605,-1.4232 -0.9168,-2.2669 3.5775,0.5288 7.2168,0.4106 10.8168,0.2025 2.5144,0 5.0345,0.0056 7.5544,-0.0338 z" />
    <path
       id="path68"
       style="fill:#29292b;fill-rule:evenodd"
       d="m 417.7856,88.5588 c 0.9675,-1.5075 1.3331,-3.6843 3.2456,-4.2976 0.5512,0.6694 1.0912,1.3445 1.6313,2.0308 -0.5345,0.5568 -1.0801,1.0968 -1.6482,1.6086 -0.1912,0.1576 -0.5793,0.4782 -0.7706,0.6356 0.7537,1.0463 1.6369,2.0813 2.8013,2.6888 4.2806,0.18 8.5725,0.0057 12.8588,0.0676 2.7843,-0.0788 5.5912,0.2192 8.3643,-0.1969 0.6187,-0.0563 2.323,-0.332 2.07,0.7368 -0.8832,1.7606 -2.1994,3.3526 -2.6044,5.3213 -0.2025,1.8225 0.1181,3.6674 -0.1687,5.4899 -0.5457,1.9576 -1.485,3.7857 -2.1826,5.6925 -2.503,0.7537 -5.1412,0.7201 -7.7006,1.1645 -2.43,0.3093 -4.8769,0.99 -7.3349,0.5737 -1.9238,-0.3038 -3.87,-0.4613 -5.7657,-0.9113 -0.6019,-0.7481 -0.6749,-1.9181 -1.4907,-2.458 -2.2386,-0.0901 -4.4099,0.7537 -6.6487,0.5456 0.0225,-3.3582 0.006,-6.7219 -0.1687,-10.0744 -0.2643,-2.3063 1.7269,-3.8925 2.5707,-5.8501 l 0.1462,-0.073 c 1.2937,-0.4501 2.098,-1.5806 2.7956,-2.6944 z" />
    <path
       id="path70"
       style="fill:#29292b;fill-rule:evenodd"
       d="m 471.2568,85.3469 c 0.8945,0.6413 1.6313,1.4963 1.4626,2.6831 0.028,1.2937 0.2192,2.5763 0.6242,3.8138 4.3032,-0.8438 8.7075,-0.2138 13.0557,-0.4782 0.2025,-0.2643 0.6019,-0.7987 0.8044,-1.063 0.3769,0.3768 0.7706,0.7424 1.1812,1.0968 -1.0855,2.6381 -1.7268,5.4506 -2.9699,8.0268 -2.3963,3.1445 -5.0851,6.5644 -9.197,7.3801 0.8888,1.7324 2.9589,0.4444 4.3313,0.2081 1.4288,3.9656 -1.305,7.5038 -3.1275,10.7775 -8.7524,0.0562 -17.4993,-0.1125 -26.2462,0.005 -0.1295,-0.703 -0.1237,-1.4006 0.0112,-2.098 1.2488,-6.5588 2.4638,-13.1231 3.6788,-19.6874 0.3318,-1.6033 0.433,-3.2738 1.0688,-4.7926 0.6524,-0.5906 1.4061,-1.035 2.1374,-1.5187 0.3375,0.5794 0.6976,1.1418 1.0632,1.7156 3.7013,-0.0113 7.4024,0.0281 11.1093,-0.0169 0.2643,-1.0912 0.5513,-2.1712 0.7481,-3.2738 0.1012,-0.9281 0.18,-1.8505 0.2644,-2.7787 z m -1.4343,6.9638 v 0 c -0.0113,1.1362 0.3262,2.2219 0.8043,3.2456 1.0069,0.3994 1.7381,1.1925 2.34,2.0757 0.2194,-2.4358 -0.6299,-4.8039 -0.3712,-7.2395 0.09,-1.0744 -0.3431,-2.0924 -0.6751,-3.088 -1.3106,1.4061 -0.5118,3.8417 -2.098,5.0062 z" />
    <path
       id="path72"
       style="fill:#29292b;fill-rule:evenodd"
       d="m 131.2761,89.7176 c 0.0507,-0.737 0.0957,-1.4738 0.1856,-2.2051 0.2025,2.1882 -0.613,4.8487 1.097,6.5982 1.26,1.4738 2.4525,3.0262 3.8925,4.3424 -0.1406,-2.025 0.0338,-4.0444 0.225,-6.0581 2.43,0.1407 4.8713,0.2081 7.3013,0 1.0911,-0.5231 1.7268,-1.6538 2.5199,-2.5256 l 0.225,0.1463 c 3.4314,7.2449 6.5982,14.6192 10.1757,21.7968 1.1249,2.3851 2.5987,4.6126 3.4481,7.1213 -8.5893,0.09 -17.1787,-0.1519 -25.7625,-0.0113 -2.0588,-2.0644 -3.9037,-4.3257 -5.7151,-6.6037 -1.8281,-2.1937 -1.9799,-5.2875 -3.8024,-7.4814 -3.1387,-4.0386 -6.2832,-8.0831 -9.6919,-11.8912 0.2982,-0.4386 0.6919,-0.6468 1.17,-0.6186 4.8376,0.2643 9.6862,0 14.5293,0.1912 0.0732,-0.9338 0.1407,-1.8675 0.2025,-2.8012 z" />
    <path
       id="path74"
       style="fill:#29292b;fill-rule:evenodd"
       d="m 349.5431,87.9513 c 1.8563,-0.0731 3.7124,-0.1631 5.5687,-0.1857 -0.5118,2.3345 -0.4443,4.7251 -0.5175,7.0932 -1.0462,1.3781 -1.9238,2.8519 -2.5649,4.455 -0.4219,1.1363 -1.8283,1.1812 -2.6944,1.8225 -0.3037,1.9632 0.9843,3.5493 2.0755,5.0118 -0.0674,-1.063 -0.135,-2.1262 -0.1969,-3.1837 1.3107,-1.5301 2.3739,-3.2513 3.5157,-4.905 0.99,-1.5076 3.1443,-1.62 4.1006,-3.1556 0.8776,-1.3387 1.7381,-2.6888 2.7056,-3.9657 0.4725,0.5119 0.9507,1.0181 1.44,1.5301 6.8063,-0.1181 13.6125,-0.0169 20.4189,-0.2138 -0.0788,-0.8438 -0.152,-1.6932 -0.2138,-2.5368 l -0.045,-0.5682 c 0.5399,1.3499 0.4669,2.7788 0.0505,4.1569 0.4164,1.5187 0.8325,3.043 1.2544,4.5675 0.63,-0.6357 1.187,-1.3389 1.6594,-2.0981 0.5345,-0.2533 1.0688,-0.5007 1.6089,-0.7426 0.5681,-1.0968 1.2655,-2.1149 2.1149,-3.015 4.2244,0.5907 8.5219,0.3264 12.7744,0.3656 0.6805,0.0451 1.3668,0.1126 2.0531,0.1913 0.0676,5.1357 -1.0969,10.1925 -1.4963,15.3057 -0.7537,3.645 -0.6805,7.4137 -1.5862,11.0305 -6.3732,-0.3149 -12.7575,-0.0225 -19.1307,-0.2811 -1.6536,0.1237 -1.513,-1.8225 -1.6536,-2.9307 -0.3939,-2.1712 1.5637,-3.6675 2.143,-5.5801 0.2025,-2.8125 -0.5737,-5.6642 0.1632,-8.4373 0.3657,-1.3388 0.4781,-2.7338 -0.2138,-3.9882 -0.585,2.4694 -2.0757,4.7025 -2.0813,7.2956 -0.1687,1.8394 0.0957,3.8081 -0.7706,5.5069 -1.3387,2.6381 -1.4006,5.6475 -2.1093,8.4656 -13.6632,-0.0957 -27.3375,0.0169 -40.9894,-0.4331 -1.6256,-1.0801 -1.5919,-4.9781 0.7706,-5.3157 3.1837,-0.5118 6.4351,-0.3769 9.5963,0.27 -0.2868,-0.6861 -0.4782,-1.4512 -1.0182,-1.9799 -2.6944,-0.5007 -5.4618,0.1124 -8.1619,-0.3262 -1.1924,-1.5864 -2.3343,-3.2852 -4.4944,-3.5495 -0.1011,-2.9305 0.1295,-5.8556 0.1239,-8.7805 0.0674,-2.7057 -0.2419,-5.4675 0.5962,-8.0889 1.8338,2.0532 4.6462,1.3219 7.0594,1.4119 2.0475,-0.1293 4.7699,0.7482 5.9119,-1.5637 0.7312,-0.9001 1.468,-1.7888 2.2331,-2.655 z" />
    <path
       id="path76"
       style="fill:#29292b;fill-rule:evenodd"
       d="m 677.6156,98.65 c 2.0363,-3.7743 4.6294,-7.2281 6.9807,-10.8112 0.253,0.0956 0.7592,0.2868 1.0125,0.3825 0.073,0.0788 0.2194,0.2419 0.2868,0.3262 1.1418,1.035 1.8225,3.1444 3.69,2.8744 8.2181,-0.0281 16.4363,0.045 24.66,-0.0394 0.2699,-0.3206 0.5512,-0.63 0.8381,-0.945 0.6976,0.4275 1.4175,0.8494 2.1431,1.2601 -6.6037,7.0648 -13.9612,13.3817 -20.7562,20.2611 -1.9407,1.817 -3.7407,3.7857 -5.7938,5.4789 -0.8774,0.3318 -1.8394,0.1687 -2.7393,0.208 -7.3125,-0.1519 -14.6307,0.1126 -21.9319,-0.2981 0.1574,-2.1488 1.9405,-3.6168 2.9868,-5.3663 0.9282,-1.5581 2.402,-2.6661 3.437,-4.1343 -0.4275,-2.2331 -1.2489,-4.6126 -3.3582,-5.7768 -0.3712,-1.7495 -0.7143,-3.5044 -1.1138,-5.2426 -1.0349,-0.613 -2.1037,-1.2768 -2.458,-2.4918 1.2938,0.0056 2.5424,0.3487 3.7574,0.7762 0.2588,1.6088 0.3769,3.24 0.6918,4.8431 0.602,0.9056 1.8394,1.2319 2.2838,2.2726 0.6131,1.4342 0.9282,2.9812 1.3276,4.4886 1.9238,0.5288 3.9543,0.6133 5.9513,0.6075 1.918,-0.4444 3.7124,-1.3162 5.6081,-1.8788 0.5399,0.1914 1.0969,0.3826 1.6594,0.5739 -0.1295,-1.0688 -1.0014,-2.2275 -2.1825,-2.0419 -1.5357,0.1518 -3.0489,0.4613 -4.5676,0.6638 -1.1363,-1.7776 -3.5155,-3.6619 -2.4131,-5.9907 z" />
    <path
       id="path78"
       style="fill:#29292b;fill-rule:evenodd"
       d="m 539.6005,89.2788 c 0.6301,0.6749 1.2995,1.3218 1.9858,1.9575 8.1111,-0.1462 16.228,-0.0056 24.3449,-0.0676 1.125,0.1182 1.9238,-0.7762 2.7619,-1.3781 0.8774,1.5694 1.0463,3.572 0.0224,5.1243 -4.303,7.3746 -8.2687,14.9458 -12.5719,22.3202 -9.4556,0.1462 -18.9224,0.3881 -28.3724,0.1406 -0.09,-1.4063 -0.5568,-2.9363 0.18,-4.2469 2.9418,-5.5125 5.6362,-11.1488 8.46,-16.7176 1.1476,-2.3399 2.4525,-4.6181 3.1893,-7.1324 z" />
    <path
       id="path80"
       style="fill:#29292b;fill-rule:evenodd"
       d="m 609.7106,91.1687 c 0.6525,-0.6805 1.3274,-1.3443 1.9574,-2.0531 0.152,1.1645 0.4951,2.3401 0.377,3.5269 -3.8644,5.1582 -7.6895,10.3557 -11.5256,15.5362 -2.402,3.2008 -4.607,6.5645 -7.2226,9.5907 -7.5657,0.135 -15.1425,-0.1069 -22.7138,0.0113 -0.3149,-0.512 -0.63,-1.0182 -0.9337,-1.5301 1.4119,-2.8799 2.25,-6.1931 4.6913,-8.4318 1.7606,-0.81 3.7068,-1.1589 5.58,-1.6707 2.368,0.8157 4.8656,0.0901 7.2843,-0.0281 1.7157,-0.1856 3.42,0.197 5.0963,0.5344 -0.5287,-0.5626 -0.9619,-1.2544 -1.6538,-1.6087 -2.3793,-0.2644 -4.7756,-0.006 -7.1494,-0.1856 -0.3318,-0.9958 -0.6637,-1.9914 -0.99,-2.987 -1.7437,-0.028 -4.5787,0.5288 -4.753,-1.9462 0.2924,-1.9462 1.62,-3.5718 2.3455,-5.3831 0.6807,-1.2206 0.8663,-2.9757 2.4019,-3.4481 3.0713,0.4388 6.1819,0.0787 9.2757,0.1293 5.9737,0.0338 11.953,-0.0563 17.9325,-0.0563 z" />
    <path
       id="path82"
       style="fill:#29292b;fill-rule:evenodd"
       d="m 495.9112,94.7182 c 0.6131,-1.5695 1.0012,-3.3076 2.1768,-4.5787 0.1406,0.2643 0.4276,0.7931 0.5681,1.0574 5.2314,0 10.4682,0.1687 15.7051,0.2137 0.8774,1.3162 1.8788,2.5481 2.9812,3.6957 0.0619,-1.4119 0.1462,-2.8238 0.3038,-4.2244 3.3975,0.6582 7.0031,0.3431 10.4681,0.2532 0.9337,-0.152 1.8844,-0.1013 2.8294,-0.0056 -0.9226,2.8742 -2.0194,5.6867 -3.1163,8.4937 -0.3994,1.0349 -1.1869,2.233 -2.4693,1.9911 -4.5732,0.006 -9.3375,-0.1237 -13.5001,2.0644 1.7045,0.7145 3.4425,-0.298 5.1526,-0.4837 1.4738,0.8438 2.6437,2.2444 3.7349,3.5381 -0.1406,2.2725 -0.7987,4.4831 -0.8436,6.7669 0.0336,1.0688 -0.8325,1.845 -1.6482,2.3794 -1.0744,0.703 -2.1826,1.6143 -3.5494,1.44 -7.8694,-0.0338 -15.7387,0.1237 -23.6081,-0.0674 -0.1576,-4.6744 1.4738,-9.2026 2.0699,-13.8094 0.2982,-3.0826 1.8114,-5.822 2.7451,-8.7244 z" />
    <path
       id="path84"
       style="fill:#29292b;fill-rule:evenodd"
       d="m 29.2219,92.7944 c 0.6636,-0.6468 1.3274,-1.2881 1.9856,-1.9294 2.9362,3.9375 6.0187,7.7626 9.0562,11.627 0.9224,1.0912 1.7887,2.2386 2.4412,3.5212 -2.1263,-0.1519 -4.2525,-0.4107 -6.3899,-0.2813 -0.2194,2.0137 -2.07,2.7788 -3.6339,3.6168 1.6033,0.006 3.3806,0.3207 4.7588,-0.7199 1.9969,-1.4794 4.59,-0.8213 6.8682,-0.6526 1.7549,2.357 3.7236,4.5395 5.4449,6.9244 1.0407,1.502 2.7395,2.6663 3.0713,4.562 -8.7131,-0.1295 -17.4319,0.1406 -26.145,0.0224 -7.2731,-8.3249 -14.4,-16.7794 -21.6619,-25.1213 -0.7199,-0.883 -1.5357,-1.7773 -1.6425,-2.9699 l 0.45,0.3374 c 0.5344,0.405 1.1306,0.782 1.8338,0.7538 3.9263,0.3094 7.8637,0.3544 11.7955,0.2138 3.9263,0.1125 7.847,0.135 11.7677,0.0956 z" />
    <path
       id="path86"
       style="fill:#29292b;fill-rule:evenodd"
       d="m 100.7211,92.5412 c 1.5412,0.2419 2.6607,-0.9224 3.7801,-1.7718 1.0011,2.295 0.63,4.8769 1.0463,7.2956 3.5831,3.1274 6.7274,6.705 10.0743,10.0687 0.0282,0.9338 0.0563,1.8732 0.0843,2.807 -1.1756,0.1518 -2.3455,0.3149 -3.5155,0.5006 -0.3487,0.7649 -0.5063,1.6875 -1.1814,2.2556 -1.6142,0.3262 -4.123,-0.2982 -4.6855,1.8 1.8113,-0.0338 3.6225,0.0619 5.3943,0.478 3.0769,0.7314 6.1989,-0.2361 9.3038,-0.2249 0.0844,1.097 -0.0674,2.1881 -0.2532,3.2624 -6.3111,0.3545 -12.6393,0.0676 -18.9562,0.2813 -2.2387,-0.0788 -4.5449,0.2701 -6.7386,-0.253 -3.5776,-3.5438 -6.5421,-7.6501 -9.9619,-11.34 -2.3739,-2.5426 -4.0389,-5.6589 -6.5082,-8.1225 -0.8045,-0.9282 -1.9238,-1.7213 -2.1768,-2.9981 -0.2644,-1.4513 -1.0125,-3.1951 0.1237,-4.4381 8.0437,0.4724 16.1156,0.2361 24.1705,0.3992 z" />
    <path
       id="path88"
       style="fill:#29292b;fill-rule:evenodd"
       d="m 175.8037,96.3551 c -0.1912,-1.8676 0.4893,-3.7013 0.6075,-5.5576 0.2025,0.675 0.4105,1.3501 0.6244,2.0194 3.1106,-0.0225 6.2268,-0.0113 9.3374,-0.0056 0.1238,-0.1519 0.3712,-0.4668 0.4951,-0.6188 0.9113,-0.3037 2.0475,-0.225 2.8631,0.2925 0.8044,1.3275 1.2094,2.8519 1.7944,4.2863 2.6719,7.3912 5.5688,14.6981 8.1112,22.1399 -6.1649,0.1519 -12.33,0.135 -18.495,0.1406 -3.3187,0 -6.6656,0.405 -9.9507,-0.1293 -2.1937,-3.7968 -4.9893,-7.2337 -6.7555,-11.2612 -1.3051,-2.5088 -2.4019,-5.1132 -3.5662,-7.6894 -1.2938,-2.8126 -3.8306,-4.8037 -5.3044,-7.4925 -0.0225,-0.2925 -0.0619,-0.8719 -0.0844,-1.1643 0.1687,0.2755 0.5063,0.8156 0.675,1.0912 4.9218,0.118 9.8437,-0.0676 14.7656,0.1069 0.0674,-0.2363 0.2025,-0.7144 0.2699,-0.9562 0.5457,0.7199 1.2319,1.3218 1.9632,1.8505 0.3262,1.3219 0.6132,2.655 0.9169,3.9826 1.4006,0.6075 2.5987,1.5524 3.7406,2.5481 -0.2869,-1.3894 -1.2544,-2.4413 -2.0081,-3.5831 z" />
    <path
       id="path90"
       style="fill:#29292b;fill-rule:evenodd"
       d="m 237.9712,92.7831 c 1.0463,0.1182 1.215,-1.1868 1.6369,-1.8619 -0.0563,0.8045 -0.4388,1.6594 -0.1632,2.4525 2.5818,5.6364 5.1694,11.2839 7.7907,16.8976 0.3431,2.8125 0.0619,5.7205 -0.7875,8.4318 -8.4656,0.2307 -16.9312,-0.1969 -25.3913,-0.3994 -0.9675,0.0676 -1.0069,-1.1699 -1.4006,-1.7718 -0.6693,-1.9238 -2.1375,-3.6619 -1.9237,-5.7993 2.61,0.3374 5.2031,0.8211 7.8412,0.2474 -0.8156,-0.2418 -1.6538,-0.405 -2.4244,-0.7594 -0.8719,-0.6187 -1.4118,-1.8619 -2.6325,-1.7887 -1.9632,-0.2419 -4.3144,0.1068 -5.6643,-1.6875 -3.1839,-4.2469 -5.2876,-9.1912 -6.7895,-14.2594 6.8232,-0.09 13.6463,-0.0337 20.475,-0.0337 -0.0225,1.1024 -0.0899,2.2275 0.152,3.313 1.1306,0.8327 2.9249,1.2769 2.6999,3.0264 -0.1743,2.8405 2.1038,5.1355 4.7588,5.7038 -0.9787,-1.412 -2.2331,-2.6325 -3.0712,-4.1345 -0.062,-1.2206 0.6187,-2.3455 0.6974,-3.5605 -1.1306,-1.3557 -3.3693,-2.9589 -1.8899,-4.8938 1.6761,1.4738 4.0556,0.8044 6.0862,0.8774 z" />
    <path
       id="path92"
       style="fill:#29292b;fill-rule:evenodd"
       d="m 258.7443,92.8169 c 1.8563,0.0731 3.4763,-0.9619 5.0794,-1.7437 3.2287,1.0068 4.5507,4.3144 6.9413,6.4012 1.0292,2.4131 -1.8732,5.6869 0.7255,7.7062 0.2926,-2.8518 1.4007,-5.5574 1.7101,-8.3924 -0.7706,-0.7313 -1.665,-1.3107 -2.4413,-2.0306 -0.2531,-1.4907 0.54,-2.8014 1.5975,-3.7801 1.5525,0.7368 3.1276,1.7044 4.9276,1.5751 8.3025,-0.0394 16.605,-0.0169 24.9075,-0.0169 0.0561,1.3612 0.2924,2.7112 0.7368,3.9992 0.1068,-0.0505 0.3149,-0.1631 0.4219,-0.2136 0.5737,-1.7493 1.063,-3.5662 2.3681,-4.9444 0.2194,0.4894 0.45,0.9732 0.6863,1.4569 4.3649,-0.135 8.7411,0.1238 13.0893,-0.2588 1.1531,0.0338 1.9518,-0.8774 2.7676,-1.5525 1.2937,1.5694 0.7368,3.7013 0.838,5.5632 -0.1012,2.205 0.4557,4.6125 -0.8155,6.5868 -1.2433,0.1012 -2.5932,0.1744 -3.4708,1.1813 -2.728,2.8518 -7.8018,0.2644 -10.2318,3.6056 0.6525,0.3263 1.367,0.225 2.0644,0.1125 4.0219,-0.5063 8.3363,-1.7438 12.105,0.4612 0.5232,3.2176 0.3543,6.6263 0.0338,9.8832 -11.9813,0.2812 -23.9626,0.208 -35.9437,0.3375 -7.667,0.3038 -15.3508,0.0225 -23.0176,0.2081 -1.9462,0.0619 -3.8869,0.028 -5.8162,-0.1687 -3.5044,-8.3701 -5.0963,-17.3476 -7.8525,-25.9594 2.8574,-0.0618 5.7262,-0.0057 8.5893,-0.0169 z" />
    <path
       id="path94"
       style="fill:#29292b;fill-rule:evenodd"
       d="m 570.6731,95.9895 c 0.945,0.5174 1.2431,1.6367 1.8394,2.4749 0.658,1.035 2.2106,1.0519 2.8911,2.0644 -0.2868,1.3781 -1.3274,2.5707 -2.4525,3.3974 -0.1293,-0.3712 -0.3936,-1.1024 -0.5287,-1.4736 -0.8043,-0.4951 -1.8561,-0.7257 -2.4131,-1.5132 -0.1462,-1.665 0.4219,-3.3132 0.6638,-4.9499 z" />
    <path
       id="path96"
       style="fill:#29292b;fill-rule:evenodd"
       d="m 45.18,99.4487 c -0.287,-1.1868 0.81,-1.9518 1.4117,-2.8012 0.1351,2.1826 0.5288,4.3538 0.4613,6.5475 -0.5174,0.6075 -1.3331,0.8493 -2.0025,1.2543 1.0014,-1.5748 0.4332,-3.3187 0.1295,-5.0006 z" />
    <path
       id="path98"
       style="fill:#29292b;fill-rule:evenodd"
       d="m 118.4681,112.195 c 1.035,-2.3287 0.2755,-4.7869 0.5007,-7.1662 0.8886,0.9731 2.2161,1.8843 2.1712,3.3581 -0.0394,1.5637 0.6411,3.915 -1.2882,4.6068 -0.6413,0.6019 -1.9576,0.1856 -1.3837,-0.7987 z" />
    <path
       id="path100"
       style="fill:#29292b;fill-rule:evenodd"
       d="m 412.4868,109.045 c 1.4457,-0.0506 2.9587,-0.1349 4.3257,0.4388 0.7593,1.3387 1.3781,3.0544 3.2344,3.088 3.0656,-0.1462 6.0806,-1.0519 9.1686,-1.0292 1.3895,0.0111 2.4919,1.2544 3.9263,1.0125 2.8069,-0.3151 5.6363,-0.3714 8.4487,-0.6638 -1.1249,1.9687 -2.07,4.2637 -3.9768,5.5856 -8.3924,0.1238 -16.7906,0.0788 -25.1832,0.3319 -0.1574,-2.925 0.1744,-5.8445 0.0563,-8.7638 z" />
    <path
       id="path102"
       style="fill:#dfdbd6;fill-rule:evenodd"
       d="m 647.7243,22.3357 c 0.4725,-1.0068 1.1307,-2.3344 2.4525,-2.2612 4.6913,0.2586 9.4332,0.2755 14.0682,1.1362 -0.4613,0.5962 -0.6244,1.7325 -1.6031,1.5807 -4.922,0.36 -9.8664,0.3375 -14.7994,0.2587 z" />
    <path
       id="path104"
       style="fill:#dfdbd6;fill-rule:evenodd"
       d="m 508.6968,20.8845 c 2.5201,0.1687 5.0569,-0.332 7.5601,-0.0507 0.5681,0.6919 0.9337,1.5132 1.3724,2.2951 -1.1419,-0.0226 -2.2781,-0.0451 -3.4087,-0.0788 -1.9013,-0.3882 -3.8362,-0.5344 -5.76,-0.6975 0.0562,-0.3657 0.1743,-1.0969 0.2362,-1.4681 z" />
    <path
       id="path106"
       style="fill:#dfdbd6;fill-rule:evenodd"
       d="m 533.2387,21.2107 c 2.2163,-0.3431 4.4774,-0.1913 6.6994,-0.4893 0.6693,0.6694 1.2768,1.4062 1.7887,2.2106 -1.5693,0.1181 -3.1331,0.2419 -4.68,0.4724 -1.5357,0.0844 -3.0712,0.0901 -4.6012,0.0957 0.2532,-0.7256 -0.045,-1.9068 0.7931,-2.2894 z" />
    <path
       id="path108"
       style="fill:#dfdbd6;fill-rule:evenodd"
       d="m 599.9962,23.0444 c 0.5063,-0.8605 0.4669,-2.5424 1.8619,-2.3343 4.2131,-0.1407 8.4431,-0.2137 12.6618,-0.0957 -0.1462,0.9113 -0.5062,1.7664 -0.8605,2.6044 -4.5507,0.2306 -9.1069,-0.1406 -13.6632,-0.1744 z" />
    <path
       id="path110"
       style="fill:#dfdbd6;fill-rule:evenodd"
       d="m 617.5743,20.5583 c 6.0187,-0.1464 12.0544,-0.1407 18.0788,-0.0676 0.8775,0.9225 1.7718,1.8338 2.6944,2.7168 -6.8007,0.0282 -13.6013,0.1464 -20.4076,0.0845 -0.135,-0.3713 -0.4105,-1.1137 -0.5456,-1.4851 0.045,-0.3093 0.1351,-0.9337 0.18,-1.2486 z" />
    <path
       id="path112"
       style="fill:#dfdbd6;fill-rule:evenodd"
       d="m 698.2031,22.4763 c 0.8494,-0.9618 1.7549,-2.2162 3.2287,-2.0193 3.5832,0.0056 7.1832,-0.1406 10.7663,0.1518 0.0281,0.4557 0.0788,1.3557 0.1013,1.8056 l 0.006,0.6469 c -3.617,0.2138 -7.2282,-0.0788 -10.845,-0.0112 -1.1531,0.0506 -2.2951,-0.1181 -3.3919,-0.4219 z" />
    <path
       id="path114"
       style="fill:#dfdbd6;fill-rule:evenodd"
       d="m 31.4381,24.0402 c 0.9337,-0.6976 1.7944,-1.5582 2.8968,-1.9801 3.0037,-0.4163 6.0356,0.0394 8.9156,0.9282 1.9576,0.6075 4.5282,0.6974 5.4957,2.8292 -1.2263,0.0901 -2.4525,0.2477 -3.6788,0.2083 -2.5593,-0.2025 -5.113,-0.4219 -7.65,-0.7875 1.5076,-0.5682 3.0882,-0.9057 4.6913,-1.0294 -2.8969,-0.8832 -5.9232,0.0338 -8.8481,0.1856 -0.4556,-0.09 -1.3668,-0.2644 -1.8225,-0.3543 z" />
    <path
       id="path116"
       style="fill:#dfdbd6;fill-rule:evenodd"
       d="m 288.7256,22.0094 c 10.4513,0.0732 20.9025,-0.0618 31.3482,-0.0563 1.6986,-0.2699 1.873,1.9464 2.6098,2.9814 -9.4443,-0.4219 -18.9224,-0.0507 -28.3612,-0.4951 -2.1318,-0.2699 -4.2863,-0.3037 -6.4294,-0.3262 0.2701,-0.7032 0.5514,-1.4062 0.8326,-2.1038 z" />
    <path
       id="path118"
       style="fill:#dfdbd6;fill-rule:evenodd"
       d="m 367.4588,24.4901 c 1.6142,-0.2643 1.5018,-2.7057 3.2624,-2.4019 8.8088,0.0338 17.6175,0.0282 26.4263,0.2419 1.3387,-0.2419 1.9293,1.0519 2.5706,1.9462 -10.7269,0.5232 -21.5213,-0.2306 -32.2593,0.2138 z" />
    <path
       id="path120"
       style="fill:#dfdbd6;fill-rule:evenodd"
       d="m 233.2968,26.352 c 0.9056,-1.0125 2.1095,-1.8282 3.4987,-1.9237 2.5144,0.5399 4.9501,1.5806 7.0537,3.0655 -0.0167,0.2194 -0.0505,0.6582 -0.0674,0.8775 -1.7718,-0.4331 -3.51,-0.9731 -5.2256,-1.5918 -1.7269,-0.3938 -3.51,-0.2869 -5.2594,-0.4275 z" />
    <path
       id="path122"
       style="fill:#dfdbd6;fill-rule:evenodd"
       d="m 417.6056,31.0825 c 0.5681,-0.6749 1.0011,-1.8167 2.0644,-1.7831 2.1543,-0.0505 4.5674,-0.0111 6.1593,1.6707 -2.5593,1.3893 -5.5013,0.1576 -8.2237,0.1124 z" />
    <path
       id="path124"
       style="fill:#dfdbd6;fill-rule:evenodd"
       d="m 357.0412,33.3552 c 1.0688,-0.3939 1.5637,0.8211 1.9181,1.5862 -4.1962,0.4668 -8.3699,1.5243 -12.6113,1.1756 0.2139,-0.9001 0.7369,-1.6538 1.3163,-2.357 3.0825,1.2995 6.3,0.3095 9.3769,-0.4048 z" />
    <path
       id="path126"
       style="fill:#dfdbd6;fill-rule:evenodd"
       d="m 86.9117,40.4144 c 2.6777,-2.8067 6.7895,-2.683 10.3164,-3.4311 -0.0169,1.0405 -0.0394,2.0868 -0.0732,3.1274 -0.6974,0.0563 -1.3893,0.1125 -2.0869,0.1744 -2.7112,0.1968 -5.4393,0.4106 -8.1563,0.1293 z" />
    <path
       id="path128"
       style="fill:#dfdbd6;fill-rule:evenodd"
       d="m 524.2387,46.1519 c 2.2556,-0.523 4.6012,-0.6694 6.885,-0.1968 0.7537,0.2025 1.5075,0.3881 2.2838,0.5737 -1.1364,1.3837 -3.1839,0.2588 -4.6969,0.4275 -1.4626,-0.3262 -3.4256,0.5569 -4.4719,-0.8044 z" />
    <path
       id="path130"
       style="fill:#dfdbd6;fill-rule:evenodd"
       d="m 16.0874,48.1601 c 2.6775,0.5624 5.8162,0.4725 7.8526,2.5987 -2.205,0.1238 -4.4156,-0.0169 -6.6207,-0.0956 -0.99,-0.3319 -0.9056,-1.6875 -1.2319,-2.5031 z" />
    <path
       id="path132"
       style="fill:#dfdbd6;fill-rule:evenodd"
       d="m 445.0893,54.55 c 1.7606,-0.0111 3.5551,-0.2812 5.2988,0.0619 0.9506,0.6131 1.3668,1.7326 1.9293,2.6719 -2.4018,0.1687 -4.8206,0.1631 -7.1943,-0.2306 -0.0169,-0.8382 -0.0282,-1.6707 -0.0338,-2.5032 z" />
    <path
       id="path134"
       style="fill:#dfdbd6;fill-rule:evenodd"
       d="m 622.4568,54.7919 c 6.6487,0 13.2918,-0.2982 19.9407,-0.4219 1.8336,-0.2643 2.4187,1.8169 3.2175,3.0206 -7.7793,-0.1518 -15.5589,0.1406 -23.3326,0.2194 0.0394,-0.9393 0.0956,-1.8786 0.1744,-2.8181 z" />
    <path
       id="path136"
       style="fill:#dfdbd6;fill-rule:evenodd"
       d="m 609.8737,55.2025 c 2.295,-0.2081 4.68,-0.4217 6.9469,0.1126 -0.4838,0.4555 -0.9506,0.9112 -1.4006,1.3837 -2.0926,-0.0056 -4.1345,0.4443 -6.2045,0.5794 -1.17,-0.4219 0.1745,-1.5695 0.6582,-2.0757 z" />
    <path
       id="path138"
       style="fill:#dfdbd6;fill-rule:evenodd"
       d="m 43.1325,55.9958 c 2.7449,-0.4444 5.5125,-0.8552 8.3025,-0.6189 -0.3544,0.9338 -0.287,2.5257 -1.3614,2.9082 -2.2611,-0.2926 -4.5393,-0.3262 -6.8118,-0.4107 -0.0338,-0.4725 -0.1012,-1.4118 -0.1293,-1.8786 z" />
    <path
       id="path140"
       style="fill:#dfdbd6;fill-rule:evenodd"
       d="m 75.3412,56.1026 c 3.2006,-0.332 6.435,-0.2701 9.6468,-0.4557 -0.8661,1.6482 -1.8731,3.4088 -3.7574,4.0388 0.0618,-0.2813 0.1856,-0.8438 0.253,-1.1251 -2.2836,-0.0224 -4.5674,-0.0393 -6.8456,-0.1462 0.2363,-0.7706 0.4107,-1.5581 0.7032,-2.3118 z" />
    <path
       id="path142"
       style="fill:#dfdbd6;fill-rule:evenodd"
       d="m 286.1268,58.4089 c 0.4951,-0.8608 0.4219,-2.5707 1.8056,-2.402 4.9501,-0.135 9.9,-0.0111 14.8557,-0.028 -0.3826,0.7761 -0.0675,2.2837 -1.1643,2.4749 -5.1639,0.0169 -10.3333,0.0338 -15.497,-0.0449 z" />
    <path
       id="path144"
       style="fill:#dfdbd6;fill-rule:evenodd"
       d="m 304.0031,55.9789 c 4.4381,0.0111 8.8819,-0.0957 13.32,0.0393 0.1743,0.7255 0.3431,1.4569 0.5232,2.1882 -4.427,-0.0114 -8.8595,0.0505 -13.2863,-0.0283 -0.1857,-0.7368 -0.3713,-1.468 -0.5569,-2.1992 z" />
    <path
       id="path146"
       style="fill:#dfdbd6;fill-rule:evenodd"
       d="m 460.35,60.6025 c 2.6269,-0.4499 5.3099,-0.135 7.92,0.3207 0.9168,0.1406 1.5525,0.8774 2.2893,1.3725 -3.5212,0.3263 -7.0594,-0.0224 -10.5863,0.2193 0.0957,-0.4781 0.2813,-1.4343 0.377,-1.9125 z" />
    <path
       id="path148"
       style="fill:#dfdbd6;fill-rule:evenodd"
       d="m 166.275,63.9213 c 0.928,-1.0913 1.9574,-2.4807 3.5549,-2.4244 2.5706,0.1181 5.1751,0.3262 7.6612,1.0125 0.6695,0.9168 0.9958,2.1545 0.3769,3.1894 -0.8493,-0.5513 -1.6874,-1.125 -2.6269,-1.5075 -1.3499,0.2532 -2.6043,0.8662 -3.9093,1.2881 -0.2531,-0.2587 -0.7649,-0.7706 -1.0181,-1.0294 0.4668,-0.0505 1.4063,-0.1575 1.8788,-0.208 -1.7213,-1.1926 -3.9713,-0.1013 -5.9175,-0.3207 z" />
    <path
       id="path150"
       style="fill:#dfdbd6;fill-rule:evenodd"
       d="m 527.8443,61.885 c 2.2106,0.2588 4.4831,0.2025 6.6376,0.8325 0.5906,0.7425 0.7143,1.7325 1.0405,2.6044 -2.8855,-0.1406 -5.7881,0.1462 -8.6568,-0.1912 0.4106,-1.0576 0.6919,-2.1544 0.9787,-3.2457 z" />
    <path
       id="path152"
       style="fill:#dfdbd6;fill-rule:evenodd"
       d="m 680.7993,62.9707 c 4.3257,-0.7313 8.7638,0.3375 12.9713,1.3725 0.1238,0.3093 0.3768,0.9337 0.5063,1.2431 -4.1851,0.1631 -8.3194,-1.5918 -12.4594,-0.7313 -0.287,-0.0674 -0.8662,-0.2025 -1.1531,-0.2756 0.0336,-0.3993 0.1013,-1.2037 0.1349,-1.6087 z" />
    <path
       id="path154"
       style="fill:#dfdbd6;fill-rule:evenodd"
       d="m 222.4069,67.0376 c 1.7155,-0.225 3.4874,-0.2194 5.1974,0.073 1.0632,0.7257 2.6719,1.4626 2.7226,2.9363 -1.5751,-0.4556 -3.0994,-1.125 -4.7194,-1.4062 -1.3614,0.0113 -2.6944,0.3712 -4.05,0.4555 -0.2588,-0.0561 -0.7875,-0.1574 -1.0463,-0.2081 0.6019,-0.6468 1.1643,-1.3387 1.8957,-1.8505 z" />
    <path
       id="path156"
       style="fill:#dfdbd6;fill-rule:evenodd"
       d="m 256.3875,69.1356 c 0.7312,-0.6974 1.3893,-1.5806 2.3849,-1.918 2.3738,-0.2982 4.77,0.0563 7.1382,0.3037 0.2699,0.5513 0.5456,1.1025 0.8211,1.6481 -0.4668,-0.0169 -1.4006,-0.0563 -1.8674,-0.0732 -2.8294,-0.1124 -5.6587,0.3883 -8.4768,0.0394 z" />
    <path
       id="path158"
       style="fill:#dfdbd6;fill-rule:evenodd"
       d="m 435.4481,68.6126 c 2.4693,-0.3938 6.3787,-2.3963 7.498,1.0519 -4.0331,1.0292 -8.2406,0.6918 -12.3525,0.6242 0.8045,-1.7549 3.2794,-1.0968 4.8545,-1.6761 z" />
    <path
       id="path160"
       style="fill:#dfdbd6;fill-rule:evenodd"
       d="m 542.0249,70.9245 c 0.7931,-2.0926 3.3413,-2.2725 5.2481,-2.5651 1.6144,0.1575 3.9151,-0.0843 4.7194,1.6932 -1.0012,0.0955 -2.0025,0.1912 -2.9924,0.2475 -2.357,-0.0675 -4.8432,-0.7762 -6.9751,0.6244 z" />
    <path
       id="path162"
       style="fill:#dfdbd6;fill-rule:evenodd"
       d="m 48.2117,74.1925 c 6.677,0.152 13.3933,-0.3487 20.0475,0.2475 -0.4161,0.585 -0.8324,1.1756 -1.2599,1.7495 -0.2025,0.2643 -0.6075,0.7817 -0.81,1.0405 -2.5199,0.0394 -5.04,0.0338 -7.5544,0.0338 -3.195,-0.3656 -6.4462,0.1912 -9.6018,-0.3881 -1.2431,-0.2926 -0.7762,-1.7775 -0.8214,-2.6832 z" />
    <path
       id="path164"
       style="fill:#dfdbd6;fill-rule:evenodd"
       d="m 414.8831,87.8837 c 0.9787,0.1463 1.9574,0.3601 2.9025,0.6751 -0.6976,1.1138 -1.5019,2.2443 -2.7956,2.6944 -0.0957,-1.1195 -0.1238,-2.2444 -0.1069,-3.3695 z" />
    <path
       id="path166"
       style="fill:#dfdbd6;fill-rule:evenodd"
       d="m 420.2437,88.5362 c 0.1913,-0.1574 0.5794,-0.478 0.7706,-0.6356 8.3926,0.4164 16.8019,-0.0224 25.2001,0.1745 -0.0169,0.3037 -0.0563,0.9168 -0.0732,1.2206 -0.6187,0.613 -1.2431,1.2094 -1.8731,1.8 -2.7731,0.4161 -5.58,0.1181 -8.3643,0.1969 -4.2863,-0.0619 -8.5782,0.1124 -12.8588,-0.0676 -1.1644,-0.6075 -2.0476,-1.6425 -2.8013,-2.6888 z" />
    <path
       id="path168"
       style="fill:#dfdbd6;fill-rule:evenodd"
       d="m 457.4362,88.5306 c 1.035,-0.3374 2.1149,-0.5568 3.2175,-0.5062 3.4425,0.0618 6.8906,-0.0506 10.3387,0.1012 -0.1968,1.1026 -0.4838,2.1826 -0.7481,3.2738 -3.7069,0.045 -7.408,0.0056 -11.1093,0.0169 -0.3656,-0.5738 -0.7257,-1.1362 -1.0632,-1.7156 -0.1574,-0.2925 -0.4725,-0.8775 -0.6356,-1.1701 z" />
    <path
       id="path170"
       style="fill:#dfdbd6;fill-rule:evenodd"
       d="m 472.7194,88.03 c 3.3018,0.0282 6.6093,0.0226 9.9225,0.0169 1.9687,0 3.9881,-0.1801 5.9005,0.4388 -0.4555,0.6075 -0.8887,1.215 -1.3387,1.8169 -0.2025,0.2643 -0.6019,0.7987 -0.8044,1.063 -4.3482,0.2644 -8.7525,-0.3656 -13.0557,0.4782 -0.405,-1.2375 -0.5962,-2.5201 -0.6242,-3.8138 z" />
    <path
       id="path172"
       style="fill:#dfdbd6;fill-rule:evenodd"
       d="m 497.3962,88.525 c 1.9237,-0.7594 4.0219,-0.405 6.0356,-0.4612 7.8806,-0.0506 15.7613,0.0731 23.6419,-0.045 1.0181,-0.0338 2.0306,0.1406 3.015,0.4163 -0.6413,0.9168 -1.2543,1.845 -1.9744,2.7 -3.465,0.0899 -7.0706,0.405 -10.4681,-0.2532 -0.6244,-0.7707 -1.2262,-1.5413 -1.845,-2.3006 -0.4838,0.9393 -0.9618,1.8844 -1.44,2.8293 -5.2369,-0.045 -10.4737,-0.2137 -15.7051,-0.2137 -0.1405,-0.2643 -0.4275,-0.7931 -0.5681,-1.0574 -0.1743,-0.405 -0.5174,-1.2095 -0.6918,-1.6145 z" />
    <path
       id="path174"
       style="fill:#dfdbd6;fill-rule:evenodd"
       d="m 538.9144,88.5419 c 1.2486,-0.4274 2.5705,-0.5681 3.898,-0.5062 9.1239,0.1181 18.27,-0.2025 27.3882,0.1856 -0.4837,0.5456 -0.9619,1.0968 -1.5075,1.5693 -0.8381,0.6019 -1.6369,1.4963 -2.7619,1.3781 -8.1169,0.062 -16.2338,-0.0786 -24.3449,0.0676 -0.6863,-0.6357 -1.3557,-1.2826 -1.9858,-1.9575 z" />
    <path
       id="path176"
       style="fill:#dfdbd6;fill-rule:evenodd"
       d="m 580.6294,88.5869 c 1.3499,-0.7201 2.9024,-0.5681 4.3818,-0.5625 9.0956,0.1237 18.1969,-0.09 27.2981,0.0956 -0.1631,0.2475 -0.4837,0.7482 -0.6413,0.9956 -0.63,0.7088 -1.3049,1.3726 -1.9574,2.0531 -5.9795,0 -11.9588,0.0901 -17.9325,0.0563 -3.0938,-0.0506 -6.2044,0.3095 -9.2757,-0.1293 -0.5568,-0.8888 -1.2036,-1.7157 -1.873,-2.5088 z" />
    <path
       id="path178"
       style="fill:#dfdbd6;fill-rule:evenodd"
       d="m 685.8956,88.5475 c 1.5018,-0.7481 3.2119,-0.4782 4.8319,-0.5062 8.7412,0.1237 17.4936,-0.1745 26.2294,0.1406 -0.6019,0.7762 -1.2264,1.5301 -1.8732,2.2556 -0.2869,0.315 -0.5682,0.6244 -0.8381,0.945 -8.2237,0.0844 -16.4419,0.0113 -24.66,0.0394 -1.8675,0.27 -2.5482,-1.8394 -3.69,-2.8744 z" />
    <path
       id="path180"
       style="fill:#dfdbd6;fill-rule:evenodd"
       d="m 3.2512,89.7287 c 8.6625,-0.2361 17.3418,0.0338 26.0101,-0.118 0.9112,-0.0507 1.8225,0.118 2.6098,0.6018 l -0.6636,0.6525 c -0.6582,0.6413 -1.322,1.2826 -1.9856,1.9294 -3.9207,0.0394 -7.8414,0.0169 -11.7677,-0.0956 C 13.5224,92.8394 9.585,92.7944 5.6587,92.485 4.9555,92.5132 4.3593,92.1362 3.8249,91.7312 3.6224,91.0619 3.4312,90.3981 3.2512,89.7287 Z" />
    <path
       id="path182"
       style="fill:#dfdbd6;fill-rule:evenodd"
       d="m 74.79,90.2857 c 0.8605,-0.5457 1.8505,-0.7032 2.8519,-0.6694 8.2349,0.0337 16.4699,0.0619 24.705,0.0112 0.9618,-0.0562 1.9012,0.1631 2.7224,0.6807 l -0.5681,0.4612 c -1.1194,0.8494 -2.2389,2.0137 -3.7801,1.7718 C 92.6662,92.3781 84.5943,92.6144 76.5506,92.142 76.0161,91.4782 75.4368,90.8369 74.79,90.2857 Z" />
    <path
       id="path184"
       style="fill:#dfdbd6;fill-rule:evenodd"
       d="m 116.8481,89.7231 c 4.8093,-0.1406 9.6187,-0.0956 14.428,-0.0055 -0.0618,0.9337 -0.1293,1.8674 -0.2025,2.8012 -4.8431,-0.1912 -9.6917,0.0731 -14.5293,-0.1912 0.0281,-0.2982 0.0788,-0.8888 0.1069,-1.187 0.0449,-0.3543 0.1462,-1.063 0.1969,-1.4175 z" />
    <path
       id="path186"
       style="fill:#dfdbd6;fill-rule:evenodd"
       d="m 135.8774,90.2968 c 0.2082,-0.1293 0.6188,-0.3936 0.8269,-0.523 3.2457,-0.2251 6.5476,-0.2532 9.7931,0.0956 -0.7931,0.8718 -1.4288,2.0025 -2.5199,2.5256 -2.43,0.2081 -4.8713,0.1407 -7.3013,0 -0.2419,-0.7087 -0.5063,-1.4119 -0.7988,-2.0982 z" />
    <path
       id="path188"
       style="fill:#dfdbd6;fill-rule:evenodd"
       d="m 155.4806,91.3151 c -0.585,-0.6919 -0.5513,-1.2488 0.1013,-1.6707 5.3211,0.0394 10.648,-0.1069 15.9693,0.0956 l -0.0619,0.5795 c -0.073,0.3093 -0.225,0.928 -0.2982,1.2375 -0.0674,0.2418 -0.2025,0.7199 -0.2699,0.9562 -4.9219,-0.1745 -9.8438,0.0111 -14.7656,-0.1069 -0.1687,-0.2756 -0.5063,-0.8157 -0.675,-1.0912 z" />
    <path
       id="path190"
       style="fill:#dfdbd6;fill-rule:evenodd"
       d="m 176.1918,90.01 c 3.9994,-0.6919 8.0944,-0.3207 12.1275,-0.2306 -0.4556,0.8212 -0.8775,1.665 -1.4512,2.4131 -0.1239,0.152 -0.3713,0.4669 -0.4951,0.6188 -3.1106,-0.0057 -6.2268,-0.0169 -9.3374,0.0056 -0.2139,-0.6693 -0.4219,-1.3444 -0.6244,-2.0194 z" />
    <path
       id="path192"
       style="fill:#dfdbd6;fill-rule:evenodd"
       d="m 207.9168,89.6951 c 7.1325,-0.0282 14.2763,-0.1969 21.4031,0.073 -0.2756,0.8888 -0.5625,1.7775 -0.7819,2.6832 -6.8287,0 -13.6518,-0.0563 -20.475,0.0337 -0.0843,-0.928 -0.0899,-1.8618 -0.1462,-2.7899 z" />
    <path
       id="path194"
       style="fill:#dfdbd6;fill-rule:evenodd"
       d="m 231.4743,89.7176 c 2.8069,0.0899 5.7656,-0.6075 8.46,0.4499 l -0.3262,0.7537 c -0.4219,0.6751 -0.5906,1.9801 -1.6369,1.8619 -2.0306,-0.073 -4.4101,0.5964 -6.0862,-0.8774 -0.287,-0.7032 -0.4275,-1.4288 -0.4107,-2.1881 z" />
    <path
       id="path196"
       style="fill:#dfdbd6;fill-rule:evenodd"
       d="m 249.9918,89.7231 c 4.05,-0.1687 8.1056,-0.0169 12.1612,-0.0956 1.1307,-0.0619 2.2332,0.225 3.3019,0.5738 -0.405,0.2194 -1.2206,0.6525 -1.6312,0.8719 -1.6031,0.7818 -3.2231,1.8168 -5.0794,1.7437 -2.8631,0.0112 -5.7319,-0.0449 -8.5893,0.0169 -0.1745,-1.0294 -0.1745,-2.0757 -0.1632,-3.1107 z" />
    <path
       id="path198"
       style="fill:#dfdbd6;fill-rule:evenodd"
       d="m 271.2374,90.3082 c 1.0688,-0.9113 2.52,-0.6413 3.8137,-0.6919 9.1183,0.1013 18.2419,-0.0619 27.36,0.0844 -0.0843,0.945 -0.1743,1.8899 -0.2192,2.835 -8.3025,0 -16.605,-0.0225 -24.9075,0.0169 -1.8,0.1293 -3.3751,-0.8383 -4.9276,-1.5751 -0.2813,-0.1687 -0.8381,-0.5006 -1.1194,-0.6693 z" />
    <path
       id="path200"
       style="fill:#dfdbd6;fill-rule:evenodd"
       d="m 305.038,89.8244 c 6.0695,-0.3487 12.1725,-0.18 18.2475,-0.0675 -0.2588,0.315 -0.7706,0.9449 -1.0236,1.2656 -0.8158,0.6751 -1.6145,1.5863 -2.7676,1.5525 -4.3482,0.3826 -8.7244,0.1238 -13.0893,0.2588 -0.2363,-0.4837 -0.4669,-0.9675 -0.6863,-1.4569 -0.1688,-0.3881 -0.512,-1.1644 -0.6807,-1.5525 z" />
    <path
       id="path202"
       style="fill:#dfdbd6;fill-rule:evenodd"
       d="m 333.9731,89.8132 c 4.4494,-0.36 8.9269,-0.1406 13.393,-0.1125 l -0.0561,0.9056 c -1.142,2.3119 -3.8644,1.4344 -5.9119,1.5637 -2.4132,-0.09 -5.2256,0.6413 -7.0594,-1.4119 -0.0899,-0.2361 -0.2757,-0.7087 -0.3656,-0.9449 z" />
    <path
       id="path204"
       style="fill:#dfdbd6;fill-rule:evenodd"
       d="m 361.6368,89.7345 c 7.1718,-0.1801 14.3606,-0.107 21.5438,-0.0169 0.0618,0.8436 0.135,1.693 0.2138,2.5368 -6.8064,0.1969 -13.6126,0.0957 -20.4189,0.2138 -0.4893,-0.512 -0.9675,-1.0182 -1.44,-1.5301 l -0.388,-0.4219 c 0.1237,-0.1967 0.3656,-0.585 0.4893,-0.7817 z" />
    <path
       id="path206"
       style="fill:#dfdbd6;fill-rule:evenodd"
       d="m 387.2586,89.7287 c 5.822,-0.0899 11.6551,-0.1743 17.4769,0.0282 l -0.1799,0.8381 c -0.6582,0.5906 -1.3162,1.1814 -1.9575,1.7887 -4.2525,-0.0392 -8.55,0.2251 -12.7744,-0.3656 -0.8719,-0.3599 -1.7493,-0.7537 -2.4131,-1.44 z" />
  </g>
</svg>
